<?xml version="1.0" encoding="UTF-8" standalone="no"?>
<!-- Created with Inkscape (http://www.inkscape.org/) -->

<svg
   xmlns:dc="http://purl.org/dc/elements/1.1/"
   xmlns:cc="http://creativecommons.org/ns#"
   xmlns:rdf="http://www.w3.org/1999/02/22-rdf-syntax-ns#"
   xmlns:svg="http://www.w3.org/2000/svg"
   xmlns="http://www.w3.org/2000/svg"
   xmlns:sodipodi="http://sodipodi.sourceforge.net/DTD/sodipodi-0.dtd"
   xmlns:inkscape="http://www.inkscape.org/namespaces/inkscape"
   width="1536"
   height="2048"
   id="svg2"
   version="1.1"
   inkscape:version="0.48.2 r9819"
   sodipodi:docname="ios-ipad-2x.svg">
  <defs
     id="defs4">
    <clipPath
       id="clipPath3083"
       clipPathUnits="userSpaceOnUse">
      <path
         id="path3085"
         d="M 0,0 648,0 648,294 0,294 0,0 z"
         inkscape:connector-curvature="0" />
    </clipPath>
  </defs>
  <sodipodi:namedview
     id="base"
     pagecolor="#000000"
     bordercolor="#666666"
     borderopacity="1.0"
     inkscape:pageopacity="1"
     inkscape:pageshadow="2"
     inkscape:zoom="0.175"
     inkscape:cx="-58.131839"
     inkscape:cy="842.44431"
     inkscape:document-units="px"
     inkscape:current-layer="layer5"
     showgrid="false"
     inkscape:window-width="1532"
     inkscape:window-height="1122"
     inkscape:window-x="1716"
     inkscape:window-y="103"
     inkscape:window-maximized="0"
     borderlayer="true"
     inkscape:showpageshadow="false" />
  <metadata
     id="metadata7">
    <rdf:RDF>
      <cc:Work
         rdf:about="">
        <dc:format>image/svg+xml</dc:format>
        <dc:type
           rdf:resource="http://purl.org/dc/dcmitype/StillImage" />
        <dc:title></dc:title>
      </cc:Work>
    </rdf:RDF>
  </metadata>
  <g
     inkscape:groupmode="layer"
     id="layer2"
     inkscape:label="ios-ipad-vertical-h:2048"
     style="display:none">
    <rect
       style="fill:#000000;fill-opacity:1;stroke:none"
       id="rect4037"
       width="1536"
       height="2048"
       x="0"
       y="0"
       inkscape:export-filename="/Users/pmn/code/personal/sprtid/identity/platforms/ios/sprtid-identity/Resources/splash/Sprtid-Portrait~ipad.png"
       inkscape:export-xdpi="45"
       inkscape:export-ydpi="45" />
  </g>
  <g
     inkscape:groupmode="layer"
     id="layer4"
     inkscape:label="ios-iphone-h:960">
    <rect
       style="fill:#000000;fill-opacity:1;stroke:none"
       id="rect4044"
       width="1536"
       height="2304"
       x="0"
       y="-128"
       inkscape:export-filename="/Users/pmn/code/personal/sprtid/identity/platforms/ios/sprtid-identity/Resources/splash/Sprtid~iphone.png"
       inkscape:export-xdpi="18.75"
       inkscape:export-ydpi="18.75" />
  </g>
  <g
     inkscape:groupmode="layer"
     id="layer5"
     inkscape:label="ios-iphone5-h:1136">
    <rect
       style="fill:#000000;fill-opacity:1;stroke:none"
       id="rect4047"
       width="1536"
       height="2726.3999"
       x="0"
       y="-339.19995"
       inkscape:export-filename="/Users/pmn/code/personal/sprtid/identity/platforms/ios/sprtid-identity/Resources/splash/Sprtid-568h@2x~iphone.png"
       inkscape:export-xdpi="37.5"
       inkscape:export-ydpi="37.5" />
  </g>
  <g
     inkscape:groupmode="layer"
     id="layer3"
     inkscape:label="ios-ipad-horizontal-h:1536"
     style="display:none">
    <rect
       y="-1792"
       x="256"
       height="2048"
       width="1536"
       id="rect4040"
       style="fill:#000000;fill-opacity:1;stroke:none"
       transform="matrix(0,1,-1,0,0,0)"
       inkscape:export-filename="/Users/pmn/code/personal/sprtid/identity/platforms/ios/sprtid-identity/Resources/splash/Sprtid-Landscape~ipad.png"
       inkscape:export-xdpi="45"
       inkscape:export-ydpi="45" />
  </g>
  <g
     inkscape:label="detail"
     inkscape:groupmode="layer"
     id="layer1"
     transform="translate(0,995.63782)"
     sodipodi:insensitive="true">
    <path
       inkscape:connector-curvature="0"
       d="m 689.42508,-361.87101 -21.73723,4.91638 25.42917,110.73404 C 553.24859,-207.08346 465.57716,-64.080871 493.38351,81.877919 L 386.36265,107.44255 c -1.69989,0.4356 -2.67732,2.09564 -2.27094,3.45555 l 3.67068,16.54728 c 0.50997,1.70255 2.35593,2.62421 3.6335,2.11689 l 106.91728,-25.53276 c 38.95917,143.31335 180.30969,231.80285 322.76247,203.83181 l 25.42919,110.73405 21.73723,-5.33339 -25.42917,-110.31969 C 982.58837,263.61126 1070.5599,120.4015 1042.5464,-25.567901 l 107.0421,-25.17155 c 1.8141,-0.67464 2.6242,-1.43161 2.3639,-2.9562 l -3.8699,-17.41051 c -0.6003,-1.61754 -1.6494,-2.48873 -3.4343,-1.77425 l -107.0315,25.16091 C 998.55402,-190.65038 857.0255,-279.20096 714.85425,-251.55131 l -25.42917,-110.3197 z m 72.99932,164.87264 c 100.33023,-2.9987 191.14378,63.22499 219.42558,162.819489 l -52.91415,12.3029 1.23507,5.73711 -86.12294,20.50216 2.45687,11.08112 86.53993,-20.5128 1.22445,5.33338 52.49979,-12.30555 C 1007.1676,101.40267 939.83102,212.1075 829.28289,244.29105 l -12.30555,-52.49715 -5.33338,1.23241 -20.0958,-87.358 -11.07048,2.45952 20.50218,87.775 -5.73711,1.2218 12.30289,52.49979 C 694.4663,270.59406 585.08951,201.65056 553.67355,90.903239 l 52.90353,-12.70928 -1.22445,-5.33338 86.52932,-20.51014 -2.45687,-11.07048 -86.53993,20.51014 -1.22445,-5.74773 -52.90352,12.70927 C 528.34797,-44.763301 595.97406,-155.8931 706.64702,-187.98369 l 11.90182,52.4998 5.73711,-1.23507 20.09579,87.775009 11.07049,-2.47014 -20.50218,-87.764379 5.73711,-1.22445 -12.30291,-52.49714 c 11.38125,-2.11689 22.81562,-3.76631 34.04015,-4.09831 z"
       style="fill:#b4d8e7;fill-opacity:1;fill-rule:nonzero;stroke:none"
       id="path3093" />
    <text
       xml:space="preserve"
       style="font-size:60.40147018px;font-style:italic;font-variant:normal;font-weight:bold;font-stretch:normal;text-align:end;line-height:100%;letter-spacing:0px;word-spacing:0px;text-anchor:end;fill:#ffffff;fill-opacity:1;stroke:none;font-family:Impact;-inkscape-font-specification:Sans Italic"
       x="1144.5973"
       y="-317.51367"
       id="text3163"
       sodipodi:linespacing="100%"><tspan
         sodipodi:role="line"
         x="1144.5973"
         y="-317.51367"
         id="tspan3167">sprt</tspan><tspan
         sodipodi:role="line"
         x="1144.5973"
         y="-257.11221"
         id="tspan3171">id</tspan></text>
    <text
       sodipodi:linespacing="100%"
       id="text3173"
       y="-1107.6427"
       x="411.19266"
       style="font-size:60.40147018px;font-style:italic;font-variant:normal;font-weight:bold;font-stretch:normal;text-align:end;line-height:100%;letter-spacing:0px;word-spacing:0px;text-anchor:end;fill:#ffffff;fill-opacity:1;stroke:none;font-family:Impact;-inkscape-font-specification:Sans Italic"
       xml:space="preserve"
       transform="matrix(0,1,-1,0,0,0)"><tspan
         id="tspan3175"
         y="-1107.6427"
         x="411.19266"
         sodipodi:role="line">sprt</tspan><tspan
         id="tspan3177"
         y="-1047.2412"
         x="411.19266"
         sodipodi:role="line">id</tspan></text>
    <text
       transform="scale(-1,-1)"
       xml:space="preserve"
       style="font-size:60.40147018px;font-style:italic;font-variant:normal;font-weight:bold;font-stretch:normal;text-align:end;line-height:100%;letter-spacing:0px;word-spacing:0px;text-anchor:end;fill:#ffffff;fill-opacity:1;stroke:none;font-family:Impact;-inkscape-font-specification:Sans Italic"
       x="-391.40271"
       y="-374.23804"
       id="text3179"
       sodipodi:linespacing="100%"><tspan
         sodipodi:role="line"
         x="-391.40271"
         y="-374.23804"
         id="tspan3181">sprt</tspan><tspan
         sodipodi:role="line"
         x="-391.40271"
         y="-313.83658"
         id="tspan3183">id</tspan></text>
    <text
       sodipodi:linespacing="100%"
       id="text3185"
       y="428.35733"
       x="354.46829"
       style="font-size:60.40147018px;font-style:italic;font-variant:normal;font-weight:bold;font-stretch:normal;text-align:end;line-height:100%;letter-spacing:0px;word-spacing:0px;text-anchor:end;fill:#ffffff;fill-opacity:1;stroke:none;font-family:Impact;-inkscape-font-specification:Sans Italic"
       xml:space="preserve"
       transform="matrix(0,-1,1,0,0,0)"><tspan
         id="tspan3187"
         y="428.35733"
         x="354.46829"
         sodipodi:role="line">sprt</tspan><tspan
         id="tspan3189"
         y="488.75879"
         x="354.46829"
         sodipodi:role="line">id</tspan></text>
  </g>
</svg>
