<?xml version="1.0" encoding="UTF-8" standalone="no"?>
<!-- Created with Inkscape (http://www.inkscape.org/) -->

<svg
   xmlns:dc="http://purl.org/dc/elements/1.1/"
   xmlns:cc="http://creativecommons.org/ns#"
   xmlns:rdf="http://www.w3.org/1999/02/22-rdf-syntax-ns#"
   xmlns:svg="http://www.w3.org/2000/svg"
   xmlns="http://www.w3.org/2000/svg"
   xmlns:xlink="http://www.w3.org/1999/xlink"
   xmlns:sodipodi="http://sodipodi.sourceforge.net/DTD/sodipodi-0.dtd"
   xmlns:inkscape="http://www.inkscape.org/namespaces/inkscape"
   width="1536"
   height="2048"
   id="svg2"
   version="1.1"
   inkscape:version="0.48.2 r9819"
   sodipodi:docname="ios-ipad-2x.svg">
  <defs
     id="defs4">
    <clipPath
       id="clipPath3083"
       clipPathUnits="userSpaceOnUse">
      <path
         id="path3085"
         d="M 0,0 648,0 648,294 0,294 0,0 z"
         inkscape:connector-curvature="0" />
    </clipPath>
    <linearGradient
       id="linearGradient684">
      <stop
         style="stop-color:#ffe51a;stop-opacity:1"
         offset="0"
         id="stop685" />
      <stop
         style="stop-color:#e60000;stop-opacity:0"
         offset="1"
         id="stop686" />
    </linearGradient>
    <linearGradient
       id="linearGradient649">
      <stop
         style="stop-color:white;stop-opacity:1"
         offset="0"
         id="stop650" />
      <stop
         style="stop-color:black;stop-opacity:0.47839999"
         offset="1"
         id="stop651" />
    </linearGradient>
    <linearGradient
       x1="0.39680198"
       y1="0.57735848"
       x2="1.0363363"
       y2="-0.29056594"
       id="linearGradient652"
       xlink:href="#linearGradient684"
       gradientUnits="objectBoundingBox"
       spreadMethod="pad" />
    <radialGradient
       cx="314.36707"
       cy="622.33319"
       r="129.41486"
       fx="314.36707"
       fy="622.33319"
       id="radialGradient653"
       xlink:href="#linearGradient649"
       gradientUnits="userSpaceOnUse"
       gradientTransform="matrix(1.199174,0,0,0.833907,115.0647,295.6275)" />
    <radialGradient
       cx="77.703499"
       cy="2006.7791"
       r="25.94915"
       fx="77.703499"
       fy="2006.7791"
       id="radialGradient654"
       xlink:href="#linearGradient649"
       gradientUnits="userSpaceOnUse"
       gradientTransform="matrix(3.005688,0,0,0.332703,115.0647,295.6275)" />
    <radialGradient
       cx="636.95264"
       cy="873.31403"
       r="84.825462"
       fx="636.95264"
       fy="873.31403"
       id="radialGradient875"
       xlink:href="#linearGradient649"
       gradientUnits="userSpaceOnUse"
       gradientTransform="matrix(0.928657,0,0,1.076824,115.0647,295.6275)" />
    <radialGradient
       cx="248.86224"
       cy="353.91174"
       r="82.692696"
       fx="248.86224"
       fy="353.91174"
       id="radialGradient877"
       xlink:href="#linearGradient649"
       gradientUnits="userSpaceOnUse"
       gradientTransform="matrix(0.551858,0,0,1.812061,115.0647,295.6275)" />
    <radialGradient
       cx="0.17181525"
       cy="0.10937142"
       r="1.6589482"
       fx="0.17181525"
       fy="0.10937142"
       id="radialGradient683"
       xlink:href="#linearGradient684" />
    <radialGradient
       id="radialGradient687"
       xlink:href="#linearGradient684" />
    <radialGradient
       cx="254.25938"
       cy="1441.0841"
       r="42.647346"
       fx="254.25938"
       fy="1441.0841"
       id="radialGradient1363"
       xlink:href="#linearGradient649"
       gradientUnits="userSpaceOnUse"
       gradientTransform="matrix(2.012624,0,0,0.496864,115.0647,295.6275)" />
    <radialGradient
       cx="769.30896"
       cy="373.53033"
       r="57.68771"
       fx="769.30896"
       fy="373.53033"
       id="radialGradient1365"
       xlink:href="#linearGradient649"
       gradientUnits="userSpaceOnUse"
       gradientTransform="matrix(0.598213,0,0,1.671646,115.0647,295.6275)" />
    <radialGradient
       cx="310.91577"
       cy="585.31793"
       r="75.703461"
       fx="310.91577"
       fy="585.31793"
       id="radialGradient1367"
       xlink:href="#linearGradient649"
       gradientUnits="userSpaceOnUse"
       gradientTransform="matrix(0.974096,0,0,1.026593,115.0647,295.6275)" />
    <radialGradient
       cx="314.36707"
       cy="622.33319"
       r="129.41486"
       fx="314.36707"
       fy="622.33319"
       id="radialGradient1413"
       xlink:href="#linearGradient649"
       gradientUnits="userSpaceOnUse"
       gradientTransform="matrix(1.199174,0,0,0.833907,104.0303,285.4069)" />
    <radialGradient
       cx="254.25938"
       cy="1441.0841"
       r="42.647346"
       fx="254.25938"
       fy="1441.0841"
       id="radialGradient1415"
       xlink:href="#linearGradient649"
       gradientUnits="userSpaceOnUse"
       gradientTransform="matrix(2.012624,0,0,0.496864,104.0303,285.4069)" />
    <radialGradient
       cx="769.30896"
       cy="373.53033"
       r="57.68771"
       fx="769.30896"
       fy="373.53033"
       id="radialGradient1417"
       xlink:href="#linearGradient649"
       gradientUnits="userSpaceOnUse"
       gradientTransform="matrix(0.598213,0,0,1.671646,104.0303,285.4069)" />
    <radialGradient
       cx="310.91577"
       cy="585.31793"
       r="75.703461"
       fx="310.91577"
       fy="585.31793"
       id="radialGradient1419"
       xlink:href="#linearGradient649"
       gradientUnits="userSpaceOnUse"
       gradientTransform="matrix(0.974096,0,0,1.026593,104.0303,285.4069)" />
    <radialGradient
       cx="77.703499"
       cy="2006.7791"
       r="25.94915"
       fx="77.703499"
       fy="2006.7791"
       id="radialGradient1421"
       xlink:href="#linearGradient649"
       gradientUnits="userSpaceOnUse"
       gradientTransform="matrix(3.005688,0,0,0.332703,104.0303,285.4069)" />
    <radialGradient
       cx="636.95264"
       cy="873.31403"
       r="84.825462"
       fx="636.95264"
       fy="873.31403"
       id="radialGradient1423"
       xlink:href="#linearGradient649"
       gradientUnits="userSpaceOnUse"
       gradientTransform="matrix(0.928657,0,0,1.076824,104.0303,285.4069)" />
    <radialGradient
       cx="248.86224"
       cy="353.91174"
       r="82.692696"
       fx="248.86224"
       fy="353.91174"
       id="radialGradient1425"
       xlink:href="#linearGradient649"
       gradientUnits="userSpaceOnUse"
       gradientTransform="matrix(0.551858,0,0,1.812061,104.0303,285.4069)" />
    <linearGradient
       id="linearGradient684-1">
      <stop
         style="stop-color:#ffe51a;stop-opacity:1"
         offset="0"
         id="stop685-7" />
      <stop
         style="stop-color:#e60000;stop-opacity:0"
         offset="1"
         id="stop686-7" />
    </linearGradient>
    <linearGradient
       id="linearGradient649-9">
      <stop
         style="stop-color:white;stop-opacity:1"
         offset="0"
         id="stop650-1" />
      <stop
         style="stop-color:black;stop-opacity:0.47839999"
         offset="1"
         id="stop651-9" />
    </linearGradient>
    <linearGradient
       x1="0.39680198"
       y1="0.57735848"
       x2="1.0363363"
       y2="-0.29056594"
       id="linearGradient652-0"
       xlink:href="#linearGradient684-1"
       gradientUnits="objectBoundingBox"
       spreadMethod="pad" />
    <radialGradient
       cx="314.36707"
       cy="622.33319"
       r="129.41486"
       fx="314.36707"
       fy="622.33319"
       id="radialGradient653-0"
       xlink:href="#linearGradient649-9"
       gradientUnits="userSpaceOnUse"
       gradientTransform="matrix(1.199174,0,0,0.833907,115.0647,295.6275)" />
    <radialGradient
       cx="77.703499"
       cy="2006.7791"
       r="25.94915"
       fx="77.703499"
       fy="2006.7791"
       id="radialGradient654-2"
       xlink:href="#linearGradient649-9"
       gradientUnits="userSpaceOnUse"
       gradientTransform="matrix(3.005688,0,0,0.332703,115.0647,295.6275)" />
    <radialGradient
       cx="636.95264"
       cy="873.31403"
       r="84.825462"
       fx="636.95264"
       fy="873.31403"
       id="radialGradient875-4"
       xlink:href="#linearGradient649-9"
       gradientUnits="userSpaceOnUse"
       gradientTransform="matrix(0.928657,0,0,1.076824,115.0647,295.6275)" />
    <radialGradient
       cx="248.86224"
       cy="353.91174"
       r="82.692696"
       fx="248.86224"
       fy="353.91174"
       id="radialGradient877-7"
       xlink:href="#linearGradient649-9"
       gradientUnits="userSpaceOnUse"
       gradientTransform="matrix(0.551858,0,0,1.812061,115.0647,295.6275)" />
    <radialGradient
       cx="0.17181525"
       cy="0.10937142"
       r="1.6589482"
       fx="0.17181525"
       fy="0.10937142"
       id="radialGradient683-1"
       xlink:href="#linearGradient684-1" />
    <radialGradient
       id="radialGradient687-6"
       xlink:href="#linearGradient684-1" />
    <radialGradient
       cx="254.25938"
       cy="1441.0841"
       r="42.647346"
       fx="254.25938"
       fy="1441.0841"
       id="radialGradient1363-8"
       xlink:href="#linearGradient649-9"
       gradientUnits="userSpaceOnUse"
       gradientTransform="matrix(2.012624,0,0,0.496864,115.0647,295.6275)" />
    <radialGradient
       cx="769.30896"
       cy="373.53033"
       r="57.68771"
       fx="769.30896"
       fy="373.53033"
       id="radialGradient1365-5"
       xlink:href="#linearGradient649-9"
       gradientUnits="userSpaceOnUse"
       gradientTransform="matrix(0.598213,0,0,1.671646,115.0647,295.6275)" />
    <radialGradient
       cx="310.91577"
       cy="585.31793"
       r="75.703461"
       fx="310.91577"
       fy="585.31793"
       id="radialGradient1367-8"
       xlink:href="#linearGradient649-9"
       gradientUnits="userSpaceOnUse"
       gradientTransform="matrix(0.974096,0,0,1.026593,115.0647,295.6275)" />
    <radialGradient
       cx="314.36707"
       cy="622.33319"
       r="129.41486"
       fx="314.36707"
       fy="622.33319"
       id="radialGradient1413-4"
       xlink:href="#linearGradient649-9"
       gradientUnits="userSpaceOnUse"
       gradientTransform="matrix(1.199174,0,0,0.833907,104.0303,285.4069)" />
    <radialGradient
       cx="254.25938"
       cy="1441.0841"
       r="42.647346"
       fx="254.25938"
       fy="1441.0841"
       id="radialGradient1415-5"
       xlink:href="#linearGradient649-9"
       gradientUnits="userSpaceOnUse"
       gradientTransform="matrix(2.012624,0,0,0.496864,104.0303,285.4069)" />
    <radialGradient
       cx="769.30896"
       cy="373.53033"
       r="57.68771"
       fx="769.30896"
       fy="373.53033"
       id="radialGradient1417-0"
       xlink:href="#linearGradient649-9"
       gradientUnits="userSpaceOnUse"
       gradientTransform="matrix(0.598213,0,0,1.671646,104.0303,285.4069)" />
    <radialGradient
       cx="310.91577"
       cy="585.31793"
       r="75.703461"
       fx="310.91577"
       fy="585.31793"
       id="radialGradient1419-3"
       xlink:href="#linearGradient649-9"
       gradientUnits="userSpaceOnUse"
       gradientTransform="matrix(0.974096,0,0,1.026593,104.0303,285.4069)" />
    <radialGradient
       cx="77.703499"
       cy="2006.7791"
       r="25.94915"
       fx="77.703499"
       fy="2006.7791"
       id="radialGradient1421-0"
       xlink:href="#linearGradient649-9"
       gradientUnits="userSpaceOnUse"
       gradientTransform="matrix(3.005688,0,0,0.332703,104.0303,285.4069)" />
    <radialGradient
       cx="636.95264"
       cy="873.31403"
       r="84.825462"
       fx="636.95264"
       fy="873.31403"
       id="radialGradient1423-5"
       xlink:href="#linearGradient649-9"
       gradientUnits="userSpaceOnUse"
       gradientTransform="matrix(0.928657,0,0,1.076824,104.0303,285.4069)" />
    <radialGradient
       cx="248.86224"
       cy="353.91174"
       r="82.692696"
       fx="248.86224"
       fy="353.91174"
       id="radialGradient1425-3"
       xlink:href="#linearGradient649-9"
       gradientUnits="userSpaceOnUse"
       gradientTransform="matrix(0.551858,0,0,1.812061,104.0303,285.4069)" />
  </defs>
  <sodipodi:namedview
     id="base"
     pagecolor="#000000"
     bordercolor="#666666"
     borderopacity="1.0"
     inkscape:pageopacity="1"
     inkscape:pageshadow="2"
     inkscape:zoom="0.1767767"
     inkscape:cx="788.91197"
     inkscape:cy="1007.2518"
     inkscape:document-units="px"
     inkscape:current-layer="layer2"
     showgrid="false"
     inkscape:window-width="1280"
     inkscape:window-height="752"
     inkscape:window-x="0"
     inkscape:window-y="0"
     inkscape:window-maximized="1"
     borderlayer="true"
     inkscape:showpageshadow="false" />
  <metadata
     id="metadata7">
    <rdf:RDF>
      <cc:Work
         rdf:about="">
        <dc:format>image/svg+xml</dc:format>
        <dc:type
           rdf:resource="http://purl.org/dc/dcmitype/StillImage" />
        <dc:title></dc:title>
      </cc:Work>
    </rdf:RDF>
  </metadata>
  <g
     inkscape:groupmode="layer"
     id="layer2"
     inkscape:label="ios-ipad-vertical-h:2048"
     style="display:inline">
    <rect
       style="fill:#000000;fill-opacity:1;stroke:none"
       id="rect4037"
       width="1536"
       height="2048"
       x="0"
       y="0"
       inkscape:export-filename="/Users/pmn/code/personal/sprtid/identity/platforms/ios/sprtid-identity/Resources/splash/Default-Portrait~ipad.png"
       inkscape:export-xdpi="45"
       inkscape:export-ydpi="45" />
  </g>
  <g
     inkscape:groupmode="layer"
     id="layer3"
     inkscape:label="ios-ipad-horizontal-h:1536"
     style="display:inline">
    <rect
       y="-1792"
       x="256"
       height="2048"
       width="1536"
       id="rect4040"
       style="fill:#000000;fill-opacity:1;stroke:none"
       transform="matrix(0,1,-1,0,0,0)"
       inkscape:export-filename="/Users/pmn/code/personal/sprtid/identity/platforms/ios/sprtid-identity/Resources/splash/Default-Landscape~ipad.png"
       inkscape:export-xdpi="45"
       inkscape:export-ydpi="45" />
  </g>
  <g
     inkscape:groupmode="layer"
     id="layer4"
     inkscape:label="ios-iphone-h:960">
    <rect
       style="fill:#000000;fill-opacity:1;stroke:none"
       id="rect4044"
       width="1536"
       height="2304"
       x="0"
       y="-128"
       inkscape:export-filename="/Users/pmn/code/personal/sprtid/identity/platforms/ios/sprtid-identity/Resources/splash/Default~iphone.png"
       inkscape:export-xdpi="18.75"
       inkscape:export-ydpi="18.75" />
  </g>
  <g
     inkscape:groupmode="layer"
     id="layer5"
     inkscape:label="ios-iphone5-h:1136">
    <rect
       style="fill:#000000;fill-opacity:1;stroke:none"
       id="rect4047"
       width="1536"
       height="2726.3999"
       x="0"
       y="-339.19995"
       inkscape:export-filename="/Users/pmn/code/personal/sprtid/identity/platforms/ios/sprtid-identity/Resources/splash/Default-568h@2x~iphone.png"
       inkscape:export-xdpi="37.5"
       inkscape:export-ydpi="37.5" />
  </g>
  <g
     inkscape:label="detail"
     inkscape:groupmode="layer"
     id="layer1"
     transform="translate(0,995.63782)"
     sodipodi:insensitive="true">
    <g
       id="g7586"
       transform="matrix(3.9521844,0,0,3.9521844,10746.961,8193.4892)"
       style="fill:#ffffff;display:inline">
      <path
         style="font-size:12px;font-style:normal;font-variant:normal;font-weight:normal;font-stretch:normal;text-indent:0;text-align:start;text-decoration:none;line-height:normal;letter-spacing:normal;word-spacing:normal;text-transform:none;direction:ltr;block-progression:tb;writing-mode:lr-tb;text-anchor:start;baseline-shift:baseline;color:#000000;fill:#ffffff;fill-opacity:1;stroke:none;stroke-width:1.5;marker:none;visibility:visible;display:inline;overflow:visible;enable-background:accumulate;font-family:Sans;-inkscape-font-specification:Sans"
         d="m -2547.6098,-2055.6701 a 11.109705,10.555999 0 0 0 -11.43,10.5561 11.109708,10.556002 0 0 0 22.2193,0 11.109705,10.555999 0 0 0 -10.7893,-10.5561 z m -0.2665,0.049 c 1.2229,0.01 2.4458,0.2093 3.6003,0.5931 0.9002,0.668 1.7217,1.3701 2.2467,2.2147 -0.8832,0.319 -1.801,0.9028 -2.7283,1.5572 -1.7417,-0.8348 -3.7888,-1.0364 -5.0639,-1.1684 -0.5257,-0.7823 -1.0289,-1.5723 -1.6482,-2.0815 0.7851,-0.5086 2.0321,-0.8843 3.5934,-1.1151 z m -0.7693,0.022 c -1.3115,0.2485 -2.3576,0.6117 -3.0322,1.0996 -1.5749,0.524 -2.7209,1.16 -3.8084,1.8104 l -0.051,-0.051 c 0.9788,-0.8812 2.1279,-1.591 3.3736,-2.0814 1.1168,-0.4397 2.3121,-0.7027 3.5185,-0.7775 z m 4.6969,0.6841 c 0.084,0.031 0.1653,0.061 0.2478,0.093 1.3369,0.5264 2.5632,1.3045 3.5864,2.277 1.0231,0.9725 1.8429,2.1393 2.3964,3.4098 0.031,0.072 0.061,0.145 0.091,0.2177 -0.3127,-0.2629 -0.6347,-0.4106 -0.9632,-0.4687 -0.8592,-1.2508 -2.0672,-2.336 -3.2988,-3.4098 -0.4847,-0.812 -1.2326,-1.4868 -2.0597,-2.1193 z m -11.6708,2.2481 0.061,0.06 c -0.6792,1.1406 -1.043,2.2383 -1.0661,3.2899 -0.8464,0.7551 -1.4049,1.7184 -1.7533,2.5435 -0.1968,0.4658 -0.3235,0.8836 -0.4021,1.1995 -0.054,0.014 -0.1228,0.02 -0.1964,0.022 0.054,-1.2281 0.3352,-2.4474 0.8299,-3.5831 0.5535,-1.2705 1.3733,-2.4374 2.3963,-3.4099 0.043,-0.041 0.087,-0.082 0.131,-0.1222 z m 5.7887,0.3487 c 1.2771,0.1328 3.3088,0.3353 5.0241,1.1574 0.4929,1.2882 0.9239,2.457 1.5454,3.9896 -1.0019,1.2673 -2.1789,2.4632 -3.5163,3.5898 -1.5516,-0.2575 -3.141,-0.5156 -4.7856,-0.7731 -1.0822,-1.6807 -1.64,-3.26 -1.5524,-4.7159 0.7523,-0.9207 1.9873,-2.0681 3.2848,-3.2478 z m 11.2569,3.0434 c 0.3538,0.069 0.7004,0.2514 1.0404,0.5909 0.4332,1.1421 0.6551,2.3556 0.6546,3.5697 0,1.2734 -0.248,2.5443 -0.7247,3.7341 -0.2929,-0.1865 -0.6047,-0.3556 -0.9633,-0.4798 -0.095,-1.6207 -0.2198,-3.2158 -0.7972,-4.4316 0.3246,-0.6749 0.5479,-1.8787 0.7902,-2.9833 z m -17.9527,0.018 c 1.4444,0.2316 2.0885,0.1454 3.2941,0.2465 -0.067,1.457 0.4922,3.0253 1.5524,4.6805 -0.9447,1.1853 -1.5684,2.408 -2.1322,3.6386 -0.6084,-0.01 -1.2263,0.01 -1.8119,-0.074 -0.6008,-0.084 -1.1659,-0.2697 -1.6646,-0.6886 0,-0.01 0,-0.01 0.01,-0.011 -0.8406,-1.0796 -1.1745,-2.4785 -1.4214,-3.934 0.01,-0.03 0.011,-0.056 0.019,-0.089 0.075,-0.316 0.2094,-0.7569 0.4161,-1.2462 0.3473,-0.8221 0.9051,-1.7802 1.7464,-2.5235 z m 13.3448,2.1658 c 1.2891,0.3246 2.6548,0.7071 3.7265,0.8663 0.5596,1.1969 0.684,2.7886 0.7786,4.4117 -1.0273,1.3057 -2.0542,2.7623 -3.0813,3.3032 -1.6016,0.19 -2.9609,-0.07 -4.213,-0.6598 -0.1632,-1.4506 -0.2332,-2.901 -0.7107,-4.3516 1.3287,-1.1215 2.5007,-2.3081 3.4999,-3.5698 z m -14.1303,5.76 c 0.5053,0.4053 1.0773,0.5902 1.6715,0.6731 0.621,0.087 1.2675,0.065 1.8938,0.073 0.9503,1.119 1.6616,2.2669 3.3268,3.301 -0.1669,0.5468 -0.1227,1.2423 -0.016,1.9837 -0.638,0.1853 -1.258,0.027 -1.9475,-0.2066 -1.2503,-0.5229 -2.3957,-1.2659 -3.3619,-2.1836 -0.5425,-0.5153 -1.0278,-1.0861 -1.4472,-1.6972 0.048,-0.014 0.093,-0.026 0.145,-0.04 -0.2342,-0.5649 -0.3917,-1.1669 -0.2642,-1.9038 z m 11.2827,2.2547 c 1.2352,0.5828 2.5823,0.8456 4.1474,0.6843 -0.025,0.8228 -0.1656,1.5579 -0.5494,2.1081 0.1444,0.01 0.2902,0.017 0.4372,0.022 -0.5425,0.3281 -1.1149,0.6125 -1.709,0.8463 -1.3365,0.5258 -2.7828,0.7996 -4.2292,0.7996 -0.2839,0 -0.5682,-0.01 -0.8511,-0.031 -0.8525,-0.1439 -1.3045,-0.3539 -1.5336,-0.6086 -0.1139,-0.7749 -0.1576,-1.4962 0.016,-2.0326 1.4486,-0.5608 3.0711,-0.8739 4.2715,-1.7882 z"
         id="path7165"
         inkscape:connector-curvature="0" />
      <path
         sodipodi:nodetypes="cccccccccccccccccccccccccccccccccccccccccccccccccccccccccccccccccccccccccccccccccccccccccccccccccccccccccccccccccccccccccccccccccccccccccccccccccccccccccccccccccccccccccccccccccccccccccccccccccccccccccccccccccccccccccccccccccccccccccccccccccccccccccccccccccccccccccccccccccccccccccccccccccccccccccccccccccccccccccccccccccccccccccccccccccccccccccccccccccccccccccccccccccccccccccccccccccccccccccccccccccccccccccccccccccccccccccccccccccc"
         inkscape:connector-curvature="0"
         id="path7576"
         d="m -2583.9935,-2002.3207 c -5.4004,-6.2642 -12.9073,-11.7934 -13.7456,-20.421 -2.8359,-5.8674 -10.0303,-12.6791 -9.1015,-18.656 2.7797,5.5022 4.5128,11.8413 9.1818,16.3341 2.6708,4.2581 9.916,7.1807 10.7957,11.226 -3.0901,-1.6395 -6.9307,-5.3151 -3.7551,0.4475 2.9846,7.8762 10.567,12.7811 16.4517,18.4393 3.5887,1.3073 8.1015,8.5718 1.2703,4.1162 -4.4774,-3.0455 -7.0515,-7.9888 -11.0973,-11.4861 z m -1.2658,-6.2025 c 5.5762,-2.6247 0.4286,9.6936 0,0 z m 7.0744,8.1443 c 10.7145,5.8704 20.254,14.5209 32.5917,16.9576 6.2706,5.5709 -7.8693,0.1419 -9.8718,-1.8174 -8.0328,-4.2819 -16.5272,-8.3129 -22.7199,-15.1402 z m 13.7229,13.5177 c 3.2893,-1.2801 12.0573,6.3296 4.2501,2.6068 -1.5442,-0.6015 -3.2996,-1.1407 -4.2501,-2.6068 z m -11.7868,-15.4617 c -0.8835,-2.9177 -7.5463,-8.9854 -1.683,-3.9996 5.0974,3.9314 5.1553,2.2766 1.6454,-1.0586 3.8979,0.7554 11.7439,2.0835 4.2818,-1.8007 -10.2263,-5.6222 -17.7766,-15.5073 -20.6834,-26.6645 -4.2033,-2.1086 -6.1714,-5.7237 -8.125,-9.7997 -0.059,8.7307 6.93,15.1461 9.0667,23.2094 -5.3333,-8.5134 -12.2676,-17.5033 -10.5679,-28.15 0.4343,-12.9579 4.8899,-26.2136 14.195,-35.566 5.863,-5.5654 14.4022,-6.7769 22.1115,-5.3303 4.8106,0.5714 17.7942,4.8601 17.8015,1.3562 -8.8112,-2.0441 -17.8647,-3.5028 -26.8773,-4.1277 -9.6003,-0.2425 -15.9062,7.618 -20.9296,14.5971 -4.7472,6.7908 -8.0139,14.8043 -8.2009,23.1281 -3.7673,-11.8024 5.022,-22.4387 11.7494,-31.2643 6.9343,-8.01 18.7376,-10.1916 28.6404,-7.1321 18.3317,1.7842 36.8762,8.9086 48.6428,23.455 2.416,2.8926 9.9204,11.1894 8.5553,10.9062 -8.9887,-7.7202 -15.3871,-18.8365 -26.6714,-23.6886 -5.2439,0.132 5.6342,5.24 7.4128,7.3266 6.7188,5.6151 12.0957,12.6418 17.9282,19.1371 2.6224,3.6374 7.3658,9.0367 7.2335,12.579 -4.5742,-6.9061 -9.2389,-13.7484 -15.2519,-19.625 -7.1508,-8.5554 -15.7712,-16.1804 -26.6327,-19.6917 -11.5052,-4.1611 -23.9722,-6.0474 -36.1773,-5.4555 -10.7605,2.956 -14.946,14.4402 -19.4947,23.3289 -2.9256,6.2842 -1.2879,18.158 1.2458,21.1794 -0.6385,-9.5299 -2.3833,-20.3388 4.2314,-28.3659 4.9515,-9.3148 15.8487,-15.8036 26.6072,-13.6562 21.3049,0.6596 42.9508,11.9014 52.8684,31.0031 -3.6048,-0.6186 -8.4678,-12.8805 -9.6064,-8.1218 3.1135,4.62 8.9457,8.9605 8.9467,14.7197 -9.1322,-14.92 -24.0145,-29.2608 -42.8712,-28.8355 -13.5215,-0.1776 -27.9466,9.4011 -28.6232,23.5996 -1.9168,19.5811 12.8899,39.7045 32.3902,43.7529 10.7805,1.9677 23.4607,-3.2444 26.7901,-14.2057 2.2867,-7.4035 2.7091,-16.6135 -2.1604,-23.056 1.76,3.8692 2.6353,18.172 -7.3704,20.0285 -8.0724,4.9103 -20.1556,7.1422 -27.2464,-0.6295 -9.189,-8.3739 -14.1651,-21.7924 -10.6398,-33.8989 -6.8983,8.2651 -0.7804,19.3188 2.8392,27.6731 5.0354,9.2068 16.1937,16.9679 27.035,12.8903 6.8278,-2.049 12.6879,-6.4392 17.4941,-11.5489 -0.5321,8.0904 -8.1607,21.8239 -15.3503,19.9896 4.157,-1.0422 14.9794,-9.382 7.4894,-11.2804 -7.4871,4.0924 -16.4438,7.3035 -24.796,3.4575 -10.8658,-4.4889 -17.2642,-15.8427 -18.1363,-27.0855 -4.3911,-4.6695 0.3342,11.0588 2.2922,13.9186 4.416,9.9977 15.1241,18.6719 26.6628,16.3699 8.904,1.1756 -9.7117,3.2419 -12.2759,-0.2096 -8.6462,-3.6962 -14.7862,-11.666 -17.4505,-20.4407 -4.2913,-5.5192 0.5783,6.4326 1.9793,8.0529 5.3695,9.1876 15.1758,16.5468 26.2271,16.6757 3.0586,-1.6132 14.7531,-4.3394 6.3466,-0.029 -12.411,4.7608 -25.8366,-3.4293 -32.2925,-13.821 -8.7973,-11.1763 -12.3448,-28.7151 -2.1894,-40.203 6.9454,-7.2128 18.3693,-8.6677 27.7807,-6.6802 -7.0597,-0.9644 -14.5757,1.2498 -18.8381,7.1517 -11.1327,15.0692 -1.2091,40.2037 17.9227,42.5301 10.4649,1.231 23.604,-6.9287 21.8406,-18.377 -3.1553,-9.3853 -11.9276,-17.5724 -22.3095,-17.7727 -4.6476,-3 -10.3852,5.0252 -2.3538,2.0633 10.5694,-1.0071 20.7821,7.3057 23.2644,17.1661 0.1681,10.8702 -12.9789,16.6255 -22.511,14.617 -12.6512,-2.1195 -18.7888,-16.3675 -17.9996,-27.9127 0.3358,-8.5567 7.152,-17.3823 16.5076,-16.5753 17.5021,0.658 32.1495,14.7715 37.5818,30.5567 1.3894,3.8099 1.8184,6.014 -0.2883,1.1607 -5.7385,-12.0467 -14.3489,-24.8768 -28.5583,-27.5846 -8.1721,-2.4241 -19.8681,-1.3166 -23.1686,7.8033 -3.266,3.5785 0.1506,15.1721 0.8124,4.6052 2.7915,-10.7129 16.0374,-13.4078 25.2931,-9.571 13.6201,4.9288 21.914,18.5245 25.8715,31.6514 2.5145,11.9343 -2.4187,24.5681 -10.7709,33.1743 -3.7805,4.0243 -14.1731,1.0669 -15.3945,3.4917 5.1994,3.2006 11.9707,-2.0653 16.6683,-0.3391 -2.7589,0.4857 -11.0988,4.2889 -3.5095,3.4706 4.1458,-2.6581 5.7832,-0.077 0.9881,1.6589 1.8149,4.7521 -7.6887,-2.9763 -10.5767,-1.0002 -2.3056,0.1825 -5.403,-2.0958 -1.0107,-2.0297 -6.9802,-1.3042 -14.4711,-6.6133 -20.9897,-5.2164 -3.9169,-1.5553 -8.0218,-1.9512 -1.8997,0.9549 11.349,5.1845 23.5972,7.9629 35.7096,10.7922 6.9243,-2.5633 5.6649,-13.312 11.6877,-15.8737 -2.6586,7.4555 -6.6515,21.9636 -17.397,15.5737 -1.6736,3.1815 -9.4274,-1.5582 -14.6147,-3.0604 -4.8252,-1.6877 -15.7641,-6.9233 -16.8187,-5.728 1.204,1.9929 -11.1575,-5.1336 -4.0577,0.903 -0.1248,1.3751 -10.0883,-5.0628 -7.2698,-5.1985 z m 6.5255,-6.5524 c 4.6418,2.6517 15.7372,9.764 18.0796,6.5624 -9.2889,-3.8986 -20.813,-6.3914 -25.8336,-16.0362 -3.4505,-3.6321 -1.9277,-4.8726 1.2248,-0.7816 4.9492,4.8609 10.9009,12.9384 18.081,12.1431 -3.1086,-1.6858 -13.1877,-7.8817 -4.0697,-3.4862 13.533,6.4249 32.8655,2.3641 39.0385,-12.1854 8.936,-18.7906 -7.9006,-42.8642 -28.473,-42.8201 -3.7344,-1.0523 -14.297,4.5671 -11.4595,5.7365 9.3901,-7.5517 22.7473,-2.518 30.7439,4.6276 15.1338,10.9628 11.3478,37.9204 -6.6115,43.8411 -13.7453,5.0206 -29.3406,-1.9631 -37.3211,-13.4873 -8.7557,-10.8675 -15.3915,-26.7446 -8.3735,-40.0603 4.3396,-7.4088 12.2768,-12.5594 20.8099,-13.861 -7.763,-4.1827 -15.4124,4.5283 -20.3691,9.6102 -6.2126,8.8727 -5.8376,20.7043 -2.2332,30.4993 -4.1566,-0.3516 -4.6577,-11.6514 -4.4105,-16.4785 0.4367,-9.6341 6.0985,-19.0043 15.194,-22.9267 10.802,-5.8731 23.7952,-2.575 34.8725,0.7243 3.7914,0.2819 12.5427,8.1215 11.6763,5.6838 -6.3608,-9.0865 -18.6977,-10.5122 -29.0199,-11.3394 -11.5433,-0.6256 -25.644,2.1956 -30.9549,13.6445 -6.4246,12.4299 -3.0341,27.1883 3.3772,38.8945 0.2387,3.0828 -4.7377,-6.9832 -5.5254,-9.3844 -4.9649,-11.363 -3.9074,-25.0784 3.8258,-35.0192 4.8225,-8.1537 14.4707,-9.3985 23.0817,-9.1292 4.2847,0.2868 7.2013,-2.3267 1.1591,-2.234 -9.1119,-1.3459 -19.7997,0.7279 -25.0183,8.9655 -11.7465,14.8185 -8.5073,36.5523 2.5167,50.8232 4.8047,6.8847 7.7856,13.6596 15.9922,17.4735 z m -11.2991,-17.1597 c 4.5737,0.055 7.5875,10.0742 2.2466,3.003 -0.8115,-0.953 -1.5715,-1.9506 -2.2466,-3.003 z m 36.624,23.5785 c 2.7215,2.9941 15.2924,-2.2554 10.7995,-2.9016 -4.201,2.3085 -16.8379,0.1525 -15.8222,2.1673 1.6507,0.413 3.3688,0.34 5.0227,0.7343 z m 1.6128,-2.8206 c 10.1728,0.217 19.6062,-7.6674 21.6607,-17.4068 -4.6842,8.6625 -13.4632,17.3468 -24.2515,15.8361 -8.7959,0.9819 1.683,2.1725 2.5908,1.5707 z m 1.7804,6.1072 c 10.6943,2.2686 18.8601,-8.0409 21.1527,-17.2382 1.2642,-3.439 4.2351,-13.3327 0.8203,-13.3032 -2.0308,8.9325 -2.0491,19.9587 -10.4912,25.7199 -1.6769,4.332 -12.2584,0.086 -11.4818,4.8215 z m -39.3089,-51.387 c -1.9794,-9.1956 11.0436,-17.7702 11.3678,-22.9055 -10.7215,3.8423 -15.0654,16.8548 -12.5208,27.1516 0.9308,-1.2196 0.9877,-2.7951 1.1528,-4.2461 z m 26.5506,20.5272 c 8.8436,3.768 21.7347,-2.1564 21.6102,-12.4272 -5.7289,0.9559 -2.9207,12.5842 -11.1843,11.1123 -9.2468,4.1592 -18.4504,-8.6746 -22.884,-9.5155 2.839,4.7482 7.314,8.6646 12.4581,10.8304 z m 3.4268,-2.3469 c 10.673,3.5339 20.7098,-12.4623 12.0667,-19.9909 -4.5769,-6.0833 -13.2185,-4.5242 -17.5226,-3.5199 -8.9775,-6.2613 -14.715,8.1372 -7.7455,13.5789 3.6927,4.0056 8.0924,7.826 13.2014,9.9319 z m 24.4451,22.8955 c 1.5354,-3.0306 -2.2996,0.1774 0,0 z m -14.9581,-76.9748 c 1.463,-4.5458 -4.4459,1.3703 0,0 z m -55.9495,60.7141 c -2.9625,-5.9226 3.6538,2.9671 0,0 z m 31.0128,30.1625 c 2.7244,0 0.061,2.0957 0,0 z m -17.425,-19.4872 c 3.4014,1.4524 -0.1858,1.7191 0,0 z m -19.5198,-20.8416 c 0.1318,-3.2644 -7.1149,-11.0834 -3.8421,-11.259 0.758,1.7782 7.9924,13.217 3.8421,11.259 z m 45.7525,44.5491 c 1.4489,-2.4343 -5.0512,-5.0377 1.4332,-2.3595 7.3619,3.0381 15.7581,4.5073 22.0345,9.5251 -6.2371,-5.4353 -20.2487,-3.5612 -24.055,-7.5002 z m -35.0294,-35.9543 c -4.0246,-2.9828 0.2645,-6.234 1.3598,-0.8606 2.8128,3.9118 -0.054,5.5716 -1.3598,0.8606 z m 44.7349,41.194 c 3.5582,-3.988 15.834,6.5303 6.1353,2.2402 -1.8669,-0.7204 -5.3218,-0.01 -6.1353,-2.2402 z m -8.7842,-12.5075 c 3.7973,-0.8364 7.6381,4.3738 0,0 z m -50.5293,-52.1672 c -2.0025,-3.2366 0.1856,-7.9249 0.9568,-2.0474 0.789,1.7967 -1.049,5.9824 -0.9568,2.0474 z m 79.2286,65.8651 c 5.9088,2.2736 -2.3857,2.3331 -1.7344,-0.8989 l 0.8766,0.431 z m 5.2056,0.703 c 0.064,-9.9788 9.7177,-16.96 9.6733,-26.9622 0.6349,-2.8043 3.8718,-13.6349 -1.1627,-11.4831 0.1407,3.2312 -1.0396,16.3956 -1.7871,6.7723 -1.0275,-7.0416 1.426,-13.4105 3.5314,-19.0167 -3.995,-15.2665 -13.9394,-30.1503 -29.0733,-36.462 -4.8563,-4.3768 10.1952,3.0455 12.2766,6.0923 19.8833,16.6162 24.5277,47.214 12.0617,69.4965 -2.5527,2.6358 -3.5811,13.3935 -5.4361,11.7494 l -0.085,-0.1864 0,0 z m 3.2682,-2.9372 c 5.1549,-9.1492 9.5849,-19.0243 10.4491,-29.5802 3.3305,7.9147 -2.7949,15.5048 -4.4601,23.0507 -0.5798,1.2362 -4.4484,11.8056 -5.989,6.5295 z m 5.3791,-2.0747 c 1.0333,-7.2713 3.3865,8.4301 0.1314,0.5272 l -0.1071,-0.4295 0,-10e-5 -0.024,-0.097 z m -28.0518,-30.362 c 3.4826,-4.2485 8.4936,-1.3281 0,0 z m 32.7643,21.1295 c 4.3006,-12.7018 3.1707,-26.6151 -0.7329,-39.2642 2.2014,-5.7444 3.9868,10.2437 4.1034,13.3305 1.2556,11.3423 0.4119,23.2659 -4.7291,33.6478 -0.6349,-2.6092 1.0536,-5.1494 1.3586,-7.7141 z m -10.6849,-9.388 c 2.0127,-8.0703 3.2103,3.5914 -1.0177,4.0567 -0.1402,-1.4342 0.5432,-2.7503 1.0177,-4.0567 z m 12.5245,13.9061 c 4.6338,-15.2654 4.8889,-31.8451 0.4563,-47.1865 6.5419,9.0466 3.6276,20.6997 4.5031,31.0283 -0.7751,4.5541 -0.2209,15.2194 -4.9594,16.1582 z m 5.7968,-9.269 c 1.8586,-9.8707 2.4869,-20.1196 0.4157,-30.0098 4.08,4.7827 2.484,13.3885 3.1604,19.771 0.077,3.6205 -0.1569,8.0457 -3.5761,10.2388 z m 3.6308,-0.3754 c 2.6474,-6.4458 0.5987,-18.3474 2.6113,-21.954 0.9605,3.3936 4.128,14.0445 1.5719,13.2804 -3.568,-2.0547 0.065,10.7904 -4.0573,11.2537 l -0.1578,-1.2199 z m 7.3916,-8.0921 c 0.4279,-10.0266 -5.2834,-18.9995 -5.9232,-28.8859 -2.8863,-5.7929 1.1752,-5.252 1.1682,0.1265 2.4389,9.5909 5.2988,19.1247 6.94,28.8814 -0.1221,2.7029 -2.7866,3.3877 -2.185,-0.122 z m -90.7337,-89.0043 c 11.3891,-3.5899 21.5859,5.5356 32.876,5.0226 4.5004,-9.0826 -12.9877,-6.8975 -16.8431,-12.503 8.6138,1.32 16.1464,6.69 24.0671,10.1604 3.1765,1.787 14.7938,7.3865 5.2633,4.5803 -5.5106,-0.1262 6.3169,4.5325 7.7075,6.3631 6.6067,4.4849 12.7217,9.6501 18.4207,15.2119 1.3242,8.9555 12.8519,11.7362 14.5256,20.8554 4.2596,10.1731 4.8729,21.401 8.6676,31.7156 -0.8434,5.4241 -3.2078,-6.8163 -3.9094,-8.6401 -2.7981,-12.4905 -5.3378,-26.0182 -15.1622,-35.235 -9.3416,-11.0047 -18.8295,-23.2172 -33.34,-27.6563 -12.5068,-4.3616 -25.5985,-6.9908 -38.5635,-9.5689 -1.2332,-0.1386 -2.4704,-0.242 -3.7096,-0.306 z m 95.5638,74.3824 c -1.2417,-2.5735 -0.9551,-14.2327 0.6311,-6.0799 0.3556,3.2829 3.1284,14.2286 0.207,13.1047 -0.3504,-2.3335 -0.3307,-4.713 -0.8381,-7.0248 z m -88.279,-79.1057 c 7.3108,1.6882 15.2236,2.9 21.5961,6.9845 -7.3494,-1.7641 -15.1549,-2.7633 -21.5961,-6.9845 z m 75.3625,69.717 c -0.6088,-7.6798 2.8584,9.1056 0,0 z m 16.1154,11.1883 c -0.4221,-11.6741 -2.3875,-24.4292 -11.0598,-33.1043 -3.2563,-7.5948 5.9985,4.1863 6.5013,6.7775 4.9057,9.5659 6.9782,20.5325 5.8816,31.2015 -1.8147,1.4255 -0.9817,-4.2551 -1.3231,-4.8747 z m -28.5736,-25.588 c 3.3844,-2.7402 2.1782,8.2846 0.4802,1.6778 z m 6.2831,6.0764 c -1.9993,-2.2953 -5.3928,-12.0035 -0.2844,-5.1694 1.3261,1.1392 3.6308,11.0436 0.2844,5.1694 z m 26.5583,16.631 c -0.9879,-14.2132 -6.5429,-28.2402 -16.2781,-38.8386 12.0518,10.1836 18.9267,26.2078 18.4292,41.7585 -0.9456,2.6214 -2.1439,-2.3603 -2.1511,-2.9199 z m -84.3482,-83.561 c 16.2633,4.3481 33.5469,9.1667 45.2923,21.91 6.5244,5.9405 12.7211,12.2208 19.2444,18.1624 -10.918,-9.8822 -22.8372,-18.7153 -36.0005,-25.4603 -9.3392,-5.5932 -19.0523,-10.6527 -29.3043,-14.4171 l 0.4338,-0.1101 2e-4,0 z m 26.6273,11.6288 c 3.4032,0.5751 10.534,9.1951 11.3547,5.0789 -3.0523,-2.7234 -12.8852,-8.9881 -13.9391,-6.1908 0.8393,0.4188 1.7093,0.7739 2.5844,1.1119 z m 33.6579,44.4484 c 3.5724,0.3408 -0.4684,4.1692 0,0 z m 11.6213,8.4335 c -2.2639,-7.048 -8.4835,-11.9671 -11.1863,-18.7621 5.1978,5.6152 15.4331,19.273 13.1409,23.3551 -1.1228,-1.3439 -0.939,-3.1977 -1.9546,-4.593 z m -68.3605,-66.908 c 17.4383,3.9311 35.1251,10.6261 47.1806,24.2581 13.7431,12.4437 29.3066,24.4338 36.0374,42.2844 0.7514,4.1916 7.2398,11.4803 3.3702,13.9927 -3.3169,-7.6154 -5.1706,-16.0122 -10.0444,-23.0075 -9.6848,-15.4642 -24.7426,-26.3988 -37.9564,-38.6968 -9.0609,-8.4149 -21.0295,-12.0905 -32.597,-15.7263 -0.4597,-0.1815 -10.7574,-3.7336 -5.9904,-3.1046 z m 0.8905,-5.0712 c 17.4109,6.5424 35.8559,12.7151 49.0442,26.3902 9.1575,8.2247 17.5345,17.2386 26.3108,25.848 -1.7252,2.0842 -8.1689,-7.696 -11.5258,-9.9336 -15.4955,-15.8133 -32.8994,-31.7155 -55.2511,-36.8551 -3.2397,-1.0365 -6.7881,-2.368 -8.5781,-5.4495 z m 32.4204,29.3586 c 9.2177,5.4344 17.325,12.5536 24.4572,20.4436 -8.1874,-7.0431 -16.8498,-13.5227 -25.0803,-20.5152 l 0.4449,0.05 c 2e-4,0 4e-4,-4e-4 9e-4,1e-4 l 0.1774,0.021 -2e-4,-10e-5 0,0 z m 53.7793,45.099 c -0.4967,-3.0429 -7.2002,-12.3036 -3.7654,-11.7096 2.5871,5.2771 8.8506,11.3263 6.1889,17.4454 -0.9065,-1.8726 -1.3317,-3.9457 -2.4235,-5.7358 z m -81.9747,-77.707 c 11.5513,4.0596 22.4969,9.7071 33.1914,15.5474 16.0938,11.3409 29.3946,25.9922 43.0547,39.9658 5.7289,6.8394 10.428,14.7331 12.4545,23.4485 -5.7969,-8.4135 -8.0386,-19.1668 -16.2711,-25.8902 -13.7575,-14.5649 -28.5347,-28.5529 -45.5553,-39.324 -8.4355,-4.4301 -17.6317,-7.5758 -25.9791,-11.9855 -0.6215,-0.3808 -0.6003,-1.1849 -0.8951,-1.762 z m 4.8644,-2.9141 c 10.1302,4.1111 19.4663,9.9695 29.5052,14.2147 13.026,8.8127 23.5009,20.7208 34.9723,31.2643 -0.7709,1.6874 -8.1859,-6.643 -11.022,-8.6775 -13.4104,-12.4498 -27.5492,-25.0797 -45.2576,-31.1175 -3.0057,-1.4532 -5.9409,-3.2038 -8.1979,-5.684 z m 86.2046,77.3204 c -2.0753,-2.7875 -5.8059,-13.8054 -0.4182,-6.2936 1.0596,1.4094 3.7477,12.6942 0.4182,6.2936 z m -79.6512,-77.5837 c 14.1943,0.5331 24.4994,11.5129 36.5339,17.4965 11.8823,7.3808 23.6932,15.5265 32.1724,26.765 -10.0632,-5.5434 -16.1865,-16.1097 -26.1636,-21.6392 -6.9089,-1.6066 5.5586,6.8337 7.3142,9.0979 12.4229,11.0721 24.8502,22.696 33.0319,37.3057 -4.2463,2.4253 -6.1851,-9.6256 -10.1519,-12.1278 -10.5843,-13.8141 -24.9216,-24.0842 -37.7104,-35.7486 -6.9562,-5.2892 -13.412,-11.7682 -21.5733,-15.1461 -4.6661,-1.4483 -10.1783,-1.9673 -13.4532,-6.0034 z m 1.5055,-5.9125 c 1.629,3.6934 9.0556,0.4498 5.0594,-2.7402 5.1047,9.0895 16.9067,10.3588 24.1022,17.3044 17.8195,11.6728 36.5365,24.328 46.3501,43.7574 3.153,5.3282 10.1244,10.2358 8.4498,17.107 -9.1519,-15.2119 -16.9489,-32.243 -32.238,-42.5416 -14.2807,-11.7696 -29.7845,-22.5512 -47.3489,-28.9542 -1.7449,-0.9364 -3.3527,-2.2252 -4.3746,-3.9328 z m 71.1835,68.2165 c 2.7248,0 0.06,2.0957 0,0 z m -7.554,-9.016 c 1.0767,-2.8397 6.1446,9.2095 0,0 z m -51.5808,-60.3626 c 19.2092,4.4472 34.5307,17.5304 49.9027,28.984 11.6368,9.324 22.4072,19.9165 30.6302,32.3524 -7.5241,-3.2035 -8.3157,-13.0932 -15.3536,-17.1898 -13.8005,-13.8155 -31.0274,-23.4668 -46.5374,-35.187 -6.8682,-0.6796 4.405,5.7308 6.3726,7.0479 16.2835,10.628 31.6713,23.3496 41.7768,40.0865 3.2801,4.5935 10.375,13.5321 10.2829,16.0592 -9.9006,-7.8504 -13.2582,-20.8361 -22.393,-29.4056 -15.9229,-17.7629 -37.8763,-28.5239 -56.2194,-43.3466 0.1531,-0.1953 4.0005,1.6251 1.5382,0.599 z m 0.248,-4.7066 c 3.538,1.9103 3.7208,-1.6301 3.4789,-2.0819 10.2072,-2.3531 17.6143,6.752 26.0127,10.6437 12.3987,8.7689 26.4087,15 38.99,23.4299 6.1721,4.5664 11.8529,9.7366 17.3993,15.0168 -10.4345,-1.1497 -13.8805,-13.5248 -23.3804,-17.0278 -11.6071,-7.4481 -24.4453,-12.9665 -35.4534,-21.3188 -5.4498,-2.4111 -11.655,-9.6062 -17.8719,-6.2165 15.7786,6.1392 28.8067,17.1198 43.5334,25.1833 12.4587,6.6538 23.4298,15.9981 31.8969,27.217 -9.3454,-4.5578 -13.5117,-15.2111 -22.8842,-19.9114 -2.8705,-3.0571 -12.7194,-8.0925 -5.3595,-1.5576 8.3091,8.1657 18.4569,14.7769 24.6332,24.85 0.2678,5.7774 -5.9382,-5.5038 -8.2347,-6.6968 -19.8484,-20.8685 -43.0562,-39.3958 -70.3066,-49.8277 -0.8561,-0.5106 -1.6809,-1.0745 -2.4537,-1.7022 z m 71.6165,64.1378 c -2.9933,-5.3805 -11.329,-13.4707 -11.1928,-17.0255 6.4907,7.1351 12.0828,14.9957 17.7169,22.7903 -3.5875,0.6737 -4.5218,-3.8707 -6.5241,-5.7648 z m -59.3769,-70.7783 c 19.9094,8.0719 36.6073,21.8551 54.91,32.7594 6.3545,4.0324 12.7382,8.1537 18.1192,13.4359 -1.1874,4.8015 -7.5942,-5.2598 -10.5661,-6.4661 -11.2556,-8.1696 -23.4125,-15.0823 -35.2656,-22.3778 -9.0498,-5.6015 -18.8384,-10.1647 -27.5962,-16.122 -0.5193,-0.4282 -0.1583,-1.1726 0.3986,-1.2294 z m 4.018,-1.9097 c 4.7521,-1.1077 12.5404,3.576 13.7386,-1.3468 10.8119,4.4942 18.1015,14.4249 28.9083,18.9748 7.976,4.7467 16.2735,8.9397 24.26,13.6686 -2.8064,4.0961 -11.9468,-4.2191 -16.5051,-5.6572 -10.8049,-5.584 -20.8936,-12.5326 -30.0791,-20.3559 -7.593,-0.6174 6.4291,6.9893 8.5455,9.7011 5.7296,5.0434 12.3343,9.0001 18.9118,12.7334 5.6787,5.0068 17.3577,6.9248 19.9812,12.7425 -7.7942,-0.2779 -13.1515,-7.9865 -20.1824,-10.9076 -11.38,-6.9475 -22.8976,-13.8901 -32.8953,-22.6953 -4.6759,-2.7174 -11.1487,-2.3012 -14.6835,-6.8576 z m 13.5177,-5.7989 c 9.2413,1.8665 16.6831,7.719 23.5975,13.5772 7.4724,4.5619 15.516,8.1166 23.037,12.595 -10.5495,-0.2829 -18.2411,-8.3727 -27.4158,-12.3536 -6.2125,-4.8687 -13.5396,-8.276 -19.2187,-13.8186 z m 21.0424,7.0204 c 3.7905,-0.6937 11.8448,8.5196 3.8726,3.9285 -1.6855,-0.6938 -10.2331,-6.2145 -3.8726,-3.9285 z"
         style="fill:#ffffff" />
      <text
         sodipodi:linespacing="100%"
         id="text7578"
         y="-2133.302"
         x="-2607.8535"
         style="font-size:12px;font-style:normal;font-variant:normal;font-weight:normal;font-stretch:normal;line-height:100%;letter-spacing:0px;word-spacing:0px;fill:#ffffff;fill-opacity:1;stroke:none;font-family:American Typewriter;-inkscape-font-specification:American Typewriter"
         xml:space="preserve"><tspan
           style="font-size:26.90450096px;line-height:100%;fill:#ffffff"
           y="-2133.302"
           x="-2607.8535"
           id="tspan7580"
           sodipodi:role="line">sprt</tspan><tspan
           id="tspan7582"
           style="font-size:26.90450096px;line-height:100%;fill:#ffffff"
           y="-2106.3975"
           x="-2607.8535"
           sodipodi:role="line">id</tspan></text>
      <path
         sodipodi:nodetypes="ccc"
         transform="translate(-2607.4229,-2150.9783)"
         inkscape:connector-curvature="0"
         id="path7584"
         d="M 49.895602,96.152701 C 44.825769,92.978736 37.892355,101.67076 47.025363,109.57837 44.886811,104.65613 46.303485,99.128894 49.895602,96.152701 z"
         style="fill:#ffffff;stroke:none" />
    </g>
  </g>
</svg>
