<?xml version="1.0" encoding="UTF-8" standalone="no"?>
<!-- Created with Inkscape (http://www.inkscape.org/) -->

<svg
   xmlns:dc="http://purl.org/dc/elements/1.1/"
   xmlns:cc="http://creativecommons.org/ns#"
   xmlns:rdf="http://www.w3.org/1999/02/22-rdf-syntax-ns#"
   xmlns:svg="http://www.w3.org/2000/svg"
   xmlns="http://www.w3.org/2000/svg"
   xmlns:sodipodi="http://sodipodi.sourceforge.net/DTD/sodipodi-0.dtd"
   xmlns:inkscape="http://www.inkscape.org/namespaces/inkscape"
   width="1536"
   height="2048"
   id="svg2"
   version="1.1"
   inkscape:version="0.48.2 r9819"
   sodipodi:docname="ios-ipad-2x.svg">
  <defs
     id="defs4" />
  <sodipodi:namedview
     id="base"
     pagecolor="#000000"
     bordercolor="#666666"
     borderopacity="1.0"
     inkscape:pageopacity="1"
     inkscape:pageshadow="2"
     inkscape:zoom="0.125"
     inkscape:cx="570.02539"
     inkscape:cy="66.702608"
     inkscape:document-units="px"
     inkscape:current-layer="layer3"
     showgrid="false"
     inkscape:window-width="1280"
     inkscape:window-height="752"
     inkscape:window-x="0"
     inkscape:window-y="0"
     inkscape:window-maximized="1"
     borderlayer="true"
     inkscape:showpageshadow="false" />
  <metadata
     id="metadata7">
    <rdf:RDF>
      <cc:Work
         rdf:about="">
        <dc:format>image/svg+xml</dc:format>
        <dc:type
           rdf:resource="http://purl.org/dc/dcmitype/StillImage" />
        <dc:title />
      </cc:Work>
    </rdf:RDF>
  </metadata>
  <g
     inkscape:groupmode="layer"
     id="layer21"
     inkscape:label="ios:Portrait@2x~ipad:2048"
     style="display:inline">
    <rect
       style="fill:#000000;fill-opacity:1;stroke:none"
       id="rect4037"
       width="1536"
       height="2048"
       x="0"
       y="0"
       inkscape:export-filename="/Users/pmn/code/personal/sprtid/identity/platforms/ios/sprtid-identity/Resources/splash/Default-Portrait@2x~ipad.png"
       inkscape:export-xdpi="90"
       inkscape:export-ydpi="90" />
  </g>
  <g
     inkscape:groupmode="layer"
     id="layer22"
     inkscape:label="ios:Portrait~ipad:1024"
     style="display:inline">
    <rect
       style="fill:#000000;fill-opacity:1;stroke:none"
       id="rect4037"
       width="1536"
       height="2048"
       x="0"
       y="0"
       inkscape:export-filename="/Users/pmn/code/personal/sprtid/identity/platforms/ios/sprtid-identity/Resources/splash/Default-Portrait~ipad.png"
       inkscape:export-xdpi="45"
       inkscape:export-ydpi="45" />
  </g>
  <g
     inkscape:groupmode="layer"
     id="layer31"
     inkscape:label="ios:Landscape@2x~ipad:1536"
     style="display:inline">
    <rect
       y="-1792"
       x="256"
       height="2048"
       width="1536"
       id="rect4040"
       style="fill:#000000;fill-opacity:1;stroke:none"
       transform="matrix(0,1,-1,0,0,0)"
       inkscape:export-filename="/Users/pmn/code/personal/sprtid/identity/platforms/ios/sprtid-identity/Resources/splash/Default-Landscape@2x~ipad.png"
       inkscape:export-xdpi="90"
       inkscape:export-ydpi="90" />
  </g>
  <g
     inkscape:groupmode="layer"
     id="layer32"
     inkscape:label="ios:Landscape~ipad:1536"
     style="display:inline">
    <rect
       y="-1792"
       x="256"
       height="2048"
       width="1536"
       id="rect4040"
       style="fill:#000000;fill-opacity:1;stroke:none"
       transform="matrix(0,1,-1,0,0,0)"
       inkscape:export-filename="/Users/pmn/code/personal/sprtid/identity/platforms/ios/sprtid-identity/Resources/splash/Default-Landscape~ipad.png"
       inkscape:export-xdpi="45"
       inkscape:export-ydpi="45" />
  </g>
  <g
     inkscape:groupmode="layer"
     id="layer41"
     inkscape:label="ios:2x~iphone:960">
    <rect
       style="fill:#000000;fill-opacity:1;stroke:none"
       id="rect4044"
       width="1536"
       height="2304"
       x="0"
       y="-128"
       inkscape:export-filename="/Users/pmn/code/personal/sprtid/identity/platforms/ios/sprtid-identity/Resources/splash/Default@2x~iphone.png"
       inkscape:export-xdpi="37.5"
       inkscape:export-ydpi="37.5" />
  </g>
  <g
     inkscape:groupmode="layer"
     id="layer42"
     inkscape:label="ios-iphone-h:960">
    <rect
       style="fill:#000000;fill-opacity:1;stroke:none"
       id="rect4044"
       width="1536"
       height="2304"
       x="0"
       y="-128"
       inkscape:export-filename="/Users/pmn/code/personal/sprtid/identity/platforms/ios/sprtid-identity/Resources/splash/Default~iphone.png"
       inkscape:export-xdpi="18.75"
       inkscape:export-ydpi="18.75" />
  </g>
  <g
     inkscape:groupmode="layer"
     id="layer5"
     inkscape:label="ios:iphone5:1136">
    <rect
       style="fill:#000000;fill-opacity:1;stroke:none"
       id="rect4047"
       width="1536"
       height="2726.3999"
       x="0"
       y="-339.19995"
       inkscape:export-filename="/Users/pmn/code/personal/sprtid/identity/platforms/ios/sprtid-identity/Resources/splash/Default-568h@2x~iphone.png"
       inkscape:export-xdpi="37.5"
       inkscape:export-ydpi="37.5" />
  </g>
  <g
     inkscape:label="detail"
     inkscape:groupmode="layer"
     id="layer1"
     transform="translate(0,995.63782)"
     sodipodi:insensitive="true">
    <g
       style="display:inline"
       id="g10836"
       transform="matrix(3.9520491,0,0,3.9520491,7910.9057,-1272.1595)">
      <path
         id="path7576-3"
         d="m -1780.9839,244.0719 c 5.6791,5.5426 13.0063,8.9438 19.2188,13.8125 9.1747,3.9809 16.8567,12.0921 27.4062,12.375 -7.521,-4.4784 -15.5588,-8.0631 -23.0312,-12.625 -6.9144,-5.8582 -14.3525,-11.696 -23.5938,-13.5625 z m 0.2188,4.4375 c -1.1982,4.9228 -8.9979,0.2673 -13.75,1.375 3.5348,4.5564 10.0116,4.12635 14.6875,6.84375 9.9977,8.8052 21.5262,15.74 32.9062,22.6875 7.0309,2.9211 12.3621,10.62835 20.1563,10.90625 -2.6235,-5.8177 -14.2901,-7.71195 -19.9688,-12.71875 -6.5775,-3.7333 -13.1766,-7.7066 -18.9062,-12.75 -2.1164,-2.7118 -16.1555,-10.3049 -8.5625,-9.6875 9.1855,7.8233 19.2888,14.75975 30.0937,20.34375 4.5583,1.4381 13.6936,9.75235 16.5,5.65625 -7.9865,-4.7289 -16.274,-8.90955 -24.25,-13.65625 -10.8068,-4.5499 -18.0943,-14.5058 -28.9062,-19 z m 18.6562,2.03125 c -1.2474,0.16036 4.6618,3.90504 6.0313,4.46875 7.9722,4.5911 -0.084,-4.59995 -3.875,-3.90625 -1.1926,-0.42863 -1.8684,-0.59951 -2.1563,-0.5625 z m -36.4375,1.25 c -0.5569,0.0568 -0.8943,0.79055 -0.375,1.21875 8.7578,5.9573 18.544,10.5235 27.5938,16.125 11.8531,7.2955 23.9944,14.2054 35.25,22.375 2.9719,1.2063 9.3751,11.27025 10.5625,6.46875 -5.381,-5.2822 -11.7393,-9.4051 -18.0938,-13.4375 -18.3027,-10.9043 -35.0281,-24.6781 -54.9375,-32.75 z m -5.0312,4.15625 c -1.1958,-0.0314 -2.4429,0.11211 -3.7188,0.40625 0.2419,0.4518 0.069,3.9728 -3.4687,2.0625 0.7728,0.6277 1.5814,1.20815 2.4375,1.71875 27.2504,10.4319 50.4641,28.944 70.3125,49.8125 2.2965,1.193 8.5178,12.4649 8.25,6.6875 -6.1763,-10.0731 -16.3472,-16.67805 -24.6563,-24.84375 -7.3599,-6.5349 2.5045,-1.4946 5.375,1.5625 9.3725,4.7003 13.5296,15.34845 22.875,19.90625 -8.4671,-11.2189 -19.4475,-20.56495 -31.9062,-27.21875 -14.7267,-8.0635 -27.7527,-19.0483 -43.5313,-25.1875 6.2169,-3.3897 12.4252,3.80765 17.875,6.21875 11.0081,8.3523 23.8617,13.89565 35.4688,21.34375 9.4999,3.503 12.9405,15.8503 23.375,17 -5.5464,-5.2802 -11.2342,-10.4336 -17.4063,-15 -12.5813,-8.4299 -26.57,-14.6686 -38.9687,-23.4375 -7.3486,-3.40524 -13.9419,-10.81166 -22.3125,-11.03125 z m -14.4375,5.59375 c 0.3483,0.62023 0.7491,1.1983 1.1562,1.75 -0.06,-0.55581 -0.4069,-1.15188 -1.1562,-1.75 z m 5.4687,1 c 18.3431,14.8227 40.2959,25.58085 56.2188,43.34375 9.1348,8.5695 12.4744,21.55585 22.375,29.40625 0.092,-2.5271 -7.0012,-11.469 -10.2813,-16.0625 -10.1055,-16.7369 -25.4977,-29.46575 -41.7812,-40.09375 -1.9676,-1.3171 -13.2432,-7.7421 -6.375,-7.0625 15.51,11.7202 32.762,21.372 46.5625,35.1875 7.0379,4.0966 7.8196,14.01525 15.3437,17.21875 -8.223,-12.4359 -18.9882,-23.051 -30.625,-32.375 -15.2628,-11.37225 -30.4818,-24.33809 -49.5,-28.875 -0.625,-0.29501 -1.8489,-0.8004 -1.9375,-0.6875 z m -4.3125,0.78125 c 0.1908,2.15553 -3.9363,3.63815 -5.7187,1.71875 1.0089,1.3422 2.3947,2.39309 3.875,3.1875 17.5644,6.403 33.063,17.1679 47.3437,28.9375 15.2891,10.2986 23.0981,27.3506 32.25,42.5625 1.6746,-6.8712 -5.2845,-11.7968 -8.4375,-17.125 -9.8136,-19.4294 -28.5555,-32.0772 -46.375,-43.75 -6.6987,-6.4661 -17.3744,-8.0146 -22.9375,-15.53125 z m -6.2187,0.96875 c 0.1054,0.23906 0.2569,0.44217 0.4062,0.625 -0.1451,-0.20049 -0.2785,-0.41155 -0.4062,-0.625 z m -1.5,5.90625 c 3.2749,4.0361 8.8026,4.5517 13.4687,6 8.1613,3.3779 14.6063,9.86705 21.5625,15.15625 12.7888,11.6644 27.1345,21.9359 37.7188,35.75 3.9668,2.5022 5.9099,14.5503 10.1562,12.125 -8.1817,-14.6097 -20.6083,-26.2404 -33.0312,-37.3125 -1.7556,-2.2642 -14.2214,-10.70035 -7.3125,-9.09375 9.9771,5.5295 16.093,16.11285 26.1562,21.65625 -8.4792,-11.2385 -20.3052,-19.40045 -32.1875,-26.78125 -12.0345,-5.9836 -22.3369,-16.9669 -36.5312,-17.5 z m -6.5625,0.28125 c 2.257,2.4802 5.213,4.20305 8.2187,5.65625 17.7084,6.0378 31.8396,18.6752 45.25,31.125 2.8361,2.0345 10.2604,10.3749 11.0313,8.6875 -11.4714,-10.5435 -21.9428,-22.46855 -34.9688,-31.28125 -10.0389,-4.2452 -19.401,-10.0764 -29.5312,-14.1875 z m -4.8438,2.90625 c 0.2948,0.5771 0.2535,1.3692 0.875,1.75 8.3474,4.4097 17.5645,7.5699 26,12 17.0206,10.7711 31.805,24.7476 45.5625,39.3125 8.2325,6.7234 10.4531,17.49275 16.25,25.90625 -2.0265,-8.7154 -6.7086,-16.62935 -12.4375,-23.46875 -13.6601,-13.9736 -26.9687,-28.62785 -43.0625,-39.96875 -10.6945,-5.8403 -21.6362,-11.47165 -33.1875,-15.53125 z m -4.2187,3.25 c 1.79,3.0815 5.3228,4.401 8.5625,5.4375 22.3517,5.1396 39.7545,21.0617 55.25,36.875 3.3569,2.2376 9.806,11.99045 11.5312,9.90625 -8.7763,-8.6094 -17.155,-17.61905 -26.3125,-25.84375 -13.1883,-13.6751 -31.6203,-19.8326 -49.0312,-26.375 z m -2.0313,5 c -1.2161,0.26099 6.7228,2.99744 7.125,3.15625 11.5675,3.6358 23.5329,7.3351 32.5938,15.75 13.2138,12.298 28.2527,23.2233 37.9375,38.6875 4.8738,6.9953 6.7456,15.3846 10.0625,23 3.8696,-2.5124 -2.6236,-9.8084 -3.375,-14 -6.7308,-17.8506 -22.2882,-29.83755 -36.0313,-42.28125 -12.0555,-13.632 -29.7492,-20.3189 -47.1875,-24.25 -0.5958,-0.0786 -0.9512,-0.0998 -1.125,-0.0625 z m -2.4062,2.46875 -0.3438,0.0937 -0.4375,0.0937 c 10.252,3.7644 19.9733,8.81305 29.3125,14.40625 13.1633,6.745 25.082,15.58655 36,25.46875 -6.5233,-5.9416 -12.7256,-12.21575 -19.25,-18.15625 -11.7454,-12.7433 -29.0179,-17.55815 -45.2812,-21.90625 z m -2.6563,2.78125 c 3.8554,5.6055 21.3442,3.4174 16.8438,12.5 -11.2901,0.513 -21.4859,-8.62115 -32.875,-5.03125 1.2392,0.064 2.4543,0.1739 3.6875,0.3125 12.965,2.5781 26.0869,5.2009 38.5937,9.5625 14.5105,4.4391 23.9709,16.65155 33.3125,27.65625 9.8244,9.2168 12.3894,22.7595 15.1875,35.25 0.7016,1.8238 3.0629,14.0491 3.9063,8.625 -3.7947,-10.3146 -4.4279,-21.54565 -8.6875,-31.71875 -1.6737,-9.1192 -13.2071,-11.88825 -14.5313,-20.84375 -5.699,-5.5618 -11.7995,-10.73385 -18.4062,-15.21875 -1.3906,-1.8306 -13.2294,-6.5012 -7.7188,-6.375 9.5305,2.8062 -2.0735,-2.7755 -5.25,-4.5625 -7.9207,-3.4704 -15.4487,-8.83625 -24.0625,-10.15625 z m -8.75,2.75 c 6.4412,4.2212 14.2444,5.20465 21.5938,6.96875 -6.3725,-4.0845 -14.283,-5.28055 -21.5938,-6.96875 z m 36.8438,4.28125 c 3.0867,0.12827 10.0513,4.66224 12.5312,6.875 -0.8207,4.1162 -7.9405,-4.4874 -11.3437,-5.0625 -0.8751,-0.338 -1.7545,-0.7062 -2.5938,-1.125 0.1977,-0.52449 0.694,-0.7171 1.4063,-0.6875 z m -36.7188,4.90625 c -7.1703,0.18806 -14.2326,2.93062 -19,8.4375 -6.7274,8.8256 -15.5173,19.4476 -11.75,31.25 0.187,-8.3238 3.4403,-16.3342 8.1875,-23.125 5.0234,-6.9791 11.3372,-14.83625 20.9375,-14.59375 9.0126,0.6249 18.0638,2.0809 26.875,4.125 -0.01,3.5039 -13.0019,-0.77235 -17.8125,-1.34375 -7.7093,-1.4466 -16.2307,-0.2529 -22.0937,5.3125 -9.3051,9.3524 -13.7845,22.63585 -14.2188,35.59375 -1.6997,10.6467 5.2605,19.6116 10.5938,28.125 -2.1367,-8.0633 -9.1215,-14.4568 -9.0625,-23.1875 1.9536,4.076 3.9217,7.67265 8.125,9.78125 2.9068,11.1572 10.4299,21.03405 20.6562,26.65625 7.4621,3.8842 -0.3833,2.5679 -4.2812,1.8125 3.5099,3.3352 3.4724,4.9939 -1.625,1.0625 -5.8633,-4.9858 0.804,1.0823 1.6875,4 l -0.031,0 c -2.8185,0.1357 7.1565,6.5626 7.2813,5.1875 -7.0998,-6.0366 5.2665,1.08665 4.0625,-0.90625 1.0546,-1.1953 11.9873,4.0623 16.8125,5.75 5.1873,1.5022 12.9514,6.244 14.625,3.0625 10.7455,6.3899 14.7476,-8.13825 17.4062,-15.59375 -6.0228,2.5617 -4.7632,13.3117 -11.6875,15.875 -12.1124,-2.8293 -24.3697,-5.59675 -35.7187,-10.78125 -6.1221,-2.9061 -2.0107,-2.52405 1.9062,-0.96875 6.5186,-1.3969 13.9886,3.91455 20.9688,5.21875 -4.3923,-0.0661 -1.2744,2.21375 1.0312,2.03125 2.888,-1.9761 12.3774,5.7521 10.5625,1 4.7951,-1.7359 3.1458,-4.31435 -1,-1.65625 -7.5893,0.8183 0.7724,-2.98305 3.5313,-3.46875 -4.6976,-1.7262 -11.4881,3.54435 -16.6875,0.34375 1.2214,-2.4248 11.6257,0.5243 15.4062,-3.5 8.3522,-8.6062 13.2958,-21.22195 10.7813,-33.15625 -3.9575,-13.1269 -12.2549,-26.72745 -25.875,-31.65625 -9.2557,-3.8368 -22.521,-1.1504 -25.3125,9.5625 -0.6618,10.5669 -4.0785,-1.01525 -0.8125,-4.59375 3.3005,-9.1199 15.0154,-10.2366 23.1875,-7.8125 14.2094,2.7078 22.824,15.54705 28.5625,27.59375 2.1067,4.8533 1.6706,2.6224 0.2812,-1.1875 -5.4323,-15.7852 -20.0916,-29.87325 -37.5937,-30.53125 -9.3556,-0.807 -16.1642,8.0058 -16.5,16.5625 -0.7892,11.5452 5.3488,25.78675 18,27.90625 9.5321,2.0085 22.6681,-3.72355 22.5,-14.59375 -2.4823,-9.8604 -12.6806,-18.1946 -23.25,-17.1875 -8.0314,2.9619 -2.3039,-5.0625 2.3437,-2.0625 10.3819,0.2003 19.1572,8.39595 22.3125,17.78125 1.7634,11.4483 -11.3788,19.606 -21.8437,18.375 -19.1318,-2.3264 -29.039,-27.46205 -17.9063,-42.53125 4.2624,-5.9019 11.7841,-8.12065 18.8438,-7.15625 -9.4114,-1.9875 -20.8359,-0.5253 -27.7813,6.6875 -10.1554,11.4879 -6.6098,29.0112 2.1875,40.1875 6.4559,10.3917 19.8703,18.60455 32.2813,13.84375 8.4065,-4.3104 -3.2852,-1.58195 -6.3438,0.0312 -11.0513,-0.12885 -20.8492,-7.49985 -26.2187,-16.68745 -1.401,-1.6203 -6.2913,-13.5817 -2,-8.0625 2.6643,8.7747 8.8225,16.7413 17.4687,20.4375 2.5642,3.4515 21.1853,1.39435 12.2813,0.21875 -11.5387,2.302 -22.2715,-6.3773 -26.6875,-16.375 -1.958,-2.8598 -6.6724,-18.57575 -2.2813,-13.90625 0.8721,11.2428 7.2592,22.60485 18.125,27.09375 8.3522,3.846 17.3254,0.62365 24.8125,-3.46875 7.49,1.8984 -3.343,10.23905 -7.5,11.28125 7.1896,1.8343 14.8117,-11.9096 15.3438,-20 -4.8062,5.1097 -10.641,9.5135 -17.4688,11.5625 -10.8413,4.0776 -22.0271,-3.69945 -27.0625,-12.90625 -3.6196,-8.3543 -9.7108,-19.39115 -2.8125,-27.65625 -3.5253,12.1065 1.436,25.53235 10.625,33.90625 7.0908,7.7717 19.1776,5.5353 27.25,0.625 10.0057,-1.8565 9.135,-16.16205 7.375,-20.03125 4.8695,6.4425 4.443,15.659 2.1563,23.0625 -3.3294,10.9613 -16.0008,16.1552 -26.7813,14.1875 -19.5003,-4.0484 -34.323,-24.1689 -32.4062,-43.75 0.6766,-14.1985 15.1035,-23.77135 28.625,-23.59375 18.8567,-0.4253 33.7428,13.92375 42.875,28.84375 -10e-4,-5.7592 -5.824,-10.09875 -8.9375,-14.71875 1.1386,-4.7587 5.9889,7.5064 9.5937,8.125 -9.9176,-19.1017 -31.5701,-30.37165 -52.875,-31.03125 -10.7585,-2.1474 -21.6422,4.34145 -26.5937,13.65625 -6.6147,8.0271 -4.8885,18.8451 -4.25,28.375 -2.5337,-3.0214 -4.1444,-14.9033 -1.2188,-21.1875 4.5487,-8.8887 8.7083,-20.3565 19.4688,-23.3125 12.2051,-0.5919 24.6823,1.2764 36.1875,5.4375 10.8615,3.5113 19.4742,11.16335 26.625,19.71875 6.013,5.8766 10.6758,12.7189 15.25,19.625 0.1323,-3.5423 -4.5964,-8.95635 -7.2188,-12.59375 -5.8325,-6.4953 -11.2187,-13.5099 -17.9375,-19.125 -1.7786,-2.0866 -12.6501,-7.21175 -7.4062,-7.34375 11.2843,4.8521 17.6675,15.9673 26.6562,23.6875 1.3651,0.2832 -6.1152,-8.01365 -8.5312,-10.90625 -11.7666,-14.5464 -30.3246,-21.6533 -48.6563,-23.4375 -3.0946,-0.95609 -6.3657,-1.39798 -9.625,-1.3125 z m 105.5625,6.71875 c -0.1362,3.5548 8.2255,11.65075 11.2188,17.03125 2.0023,1.8941 2.9125,6.4237 6.5,5.75 -5.6341,-7.7946 -11.2281,-15.64615 -17.7188,-22.78125 z m -58.0625,0.375 c 8.2305,6.9925 16.9064,13.48815 25.0938,20.53125 -7.1322,-7.89 -15.2511,-15.03435 -24.4688,-20.46875 l -0.1875,0 -0.4375,-0.0625 z m -15.1562,0.9375 c 0.4417,-0.0811 0.7072,0.32944 0.25,1.75 -3.0566,0.94208 -1.2217,-1.57149 -0.25,-1.75 z m -27.3438,1.6875 c 1.7729,-0.006 3.5416,0.12264 5.25,0.375 6.0422,-0.0927 3.1285,2.50555 -1.1562,2.21875 -8.611,-0.2693 -18.2713,1.00255 -23.0938,9.15625 -7.7332,9.9408 -8.7774,23.637 -3.8125,35 0.7877,2.4012 5.7387,12.4578 5.5,9.375 -6.4113,-11.7062 -9.7996,-26.4451 -3.375,-38.875 5.3109,-11.4489 19.4255,-14.28185 30.9688,-13.65625 10.3222,0.8272 22.6392,2.25725 29,11.34375 0.8664,2.4377 -7.8649,-5.4056 -11.6563,-5.6875 -11.0773,-3.2993 -24.073,-6.59185 -34.875,-0.71875 -9.0955,3.9224 -14.7508,13.3034 -15.1875,22.9375 -0.2472,4.8271 0.2497,16.11715 4.4063,16.46875 -3.6044,-9.795 -3.9939,-21.6273 2.2187,-30.5 4.9567,-5.0819 12.612,-13.8077 20.375,-9.625 -8.5331,1.3016 -16.4729,6.4662 -20.8125,13.875 -7.018,13.3157 -0.3807,29.195 8.375,40.0625 7.9805,11.5242 23.5672,18.5206 37.3125,13.5 17.9593,-5.9207 21.7588,-32.88095 6.625,-43.84375 -7.9966,-7.1456 -21.3599,-12.1767 -30.75,-4.625 -2.8375,-1.1694 7.7344,-6.8023 11.4688,-5.75 20.5724,-0.0441 37.4047,24.0219 28.4687,42.8125 -6.173,14.5495 -25.4982,18.6124 -39.0312,12.1875 -9.118,-4.3955 0.9539,1.8142 4.0625,3.5 -7.1801,0.7953 -13.1446,-7.29535 -18.0938,-12.15625 -3.1525,-4.091 -4.6692,-2.85085 -1.2187,0.78125 5.0206,9.6448 16.5548,12.13265 25.8437,16.03125 -2.3424,3.2016 -13.4519,-3.9108 -18.0937,-6.5625 -8.2066,-3.8139 -11.1641,-10.58405 -15.9688,-17.46875 -11.024,-14.2709 -14.2777,-35.994 -2.5312,-50.8125 4.2401,-6.69305 12.0989,-9.31697 19.7812,-9.34375 z m -0.5,13.0625 c -0.3242,5.1353 -13.3544,13.6794 -11.375,22.875 -0.1651,1.451 -0.1942,3.0304 -1.125,4.25 -2.5446,-10.2968 1.7785,-23.2827 12.5,-27.125 z m 27.125,0.75 c -0.2724,0.0976 -0.067,0.49185 0.8438,1.3125 15.1339,6.3117 25.0987,21.20225 29.0937,36.46875 -2.1054,5.6062 -4.5587,11.98965 -3.5312,19.03125 0.7475,9.6233 1.9219,-3.55005 1.7812,-6.78125 5.0345,-2.1518 1.7912,8.66445 1.1563,11.46875 0.044,10.0022 -9.5923,16.98995 -9.6563,26.96875 l 0.062,0.1875 c 1.855,1.6441 2.8848,-9.1142 5.4375,-11.75 12.466,-22.2825 7.8208,-52.8838 -12.0625,-69.5 -1.6911,-2.47553 -11.9442,-7.82938 -13.125,-7.40625 z m 65.25,0.6875 c -0.1585,0.0343 -0.3053,0.17128 -0.4062,0.4375 5.5685,8.34611 1.9391,-0.76895 0.4062,-0.4375 z m -17.5312,5.78125 c 9.7352,10.5984 15.2933,24.63055 16.2812,38.84375 0.01,0.5596 1.2107,5.52765 2.1563,2.90625 0.4975,-15.5507 -6.3857,-31.5664 -18.4375,-41.75 z m -7.3438,1.03125 c 2.7028,6.795 8.9236,11.702 11.1875,18.75 1.0156,1.3953 0.8147,3.24985 1.9375,4.59375 2.2922,-4.0821 -7.9272,-17.72855 -13.125,-23.34375 z m 32.0313,2.65625 c 0.06,2.0957 2.7248,0 0,0 z m -24.1563,2.40625 c -0.4175,-0.077 -0.4078,0.63255 0.4063,2.53125 8.6723,8.6751 10.6404,21.41965 11.0625,33.09375 0.3414,0.6196 -0.471,6.3005 1.3437,4.875 1.0966,-10.669 -1.0005,-21.65285 -5.9062,-31.21875 -0.3771,-1.9434 -5.6535,-9.05041 -6.9063,-9.28125 z m -66.8437,2.71875 c 1.3931,-0.0834 2.9417,0.35726 4.625,1.53125 4.3041,-1.0043 12.9543,-2.55205 17.5312,3.53125 8.6431,7.5286 -1.3895,23.50265 -12.0625,19.96875 -5.109,-2.1059 -9.526,-5.9319 -13.2187,-9.9375 -5.6627,-4.42138 -2.9116,-14.73225 3.125,-15.09375 z m 95.0625,1.28125 c -1.1264,0.0604 1.3498,6.78438 2.9062,8.875 3.3295,6.4006 0.6534,-4.9031 -0.4062,-6.3125 -1.3469,-1.87795 -2.1245,-2.58264 -2.5,-2.5625 z m -10.25,0.4375 c -2.7291,0.006 3.5813,8.77094 4.0625,11.71875 1.0918,1.7901 1.531,3.8774 2.4375,5.75 2.6617,-6.1191 -3.6317,-12.1604 -6.2188,-17.4375 -0.1073,-0.0186 -0.1932,-0.0314 -0.2812,-0.0312 z m -131.1875,0.0625 c -0.6533,0.22306 -1.0328,2.82088 0.2187,4.84375 -0.092,3.935 1.7265,-0.2658 0.9375,-2.0625 -0.2892,-2.20406 -0.7642,-2.91508 -1.1562,-2.78125 z m 46.8125,0.15625 c -4.3997,0.1901 -8.1122,7.42171 -0.4063,14.09375 -2.1386,-4.9223 -0.7171,-10.4613 2.875,-13.4375 -0.7921,-0.49594 -1.6539,-0.69145 -2.4687,-0.65625 z m 58.0937,0.59375 c -0.4684,4.1692 3.5724,0.3408 0,0 z m -5.1875,3.28125 c -1.1069,-0.0451 1.1881,5.87228 2.6875,7.59375 3.3464,5.8742 1.0449,-4.0483 -0.2812,-5.1875 -1.2771,-1.70852 -2.0373,-2.39121 -2.4063,-2.40625 z m -2.75,1.0625 c -0.2399,0.0408 -0.5264,0.18061 -0.8437,0.4375 l 0.4687,1.6875 c 1.5389,5.98741 2.6948,-2.51941 0.375,-2.125 z m -96.75,3.375 c -3.2728,0.1756 3.9756,7.9856 3.8438,11.25 4.1503,1.958 -3.0858,-9.4718 -3.8438,-11.25 z m 110.0313,2.46875 c -0.6537,-0.0834 -0.9432,1.22855 0.5,4.125 0.6398,9.8864 6.3341,18.8484 5.9062,28.875 -0.6016,3.5097 2.0654,2.8279 2.1875,0.125 -1.6412,-9.7567 -4.4986,-19.2841 -6.9375,-28.875 0,-2.68925 -1.0025,-4.16657 -1.6562,-4.25 z m -35.5938,2.25 c 0.1245,10.2708 -12.7814,16.17425 -21.625,12.40625 -5.1441,-2.1658 -9.6297,-6.0643 -12.4687,-10.8125 4.4336,0.8409 13.6594,13.6592 22.9062,9.5 8.2636,1.4719 5.4586,-10.13785 11.1875,-11.09375 z m -74.6875,1.0625 c -0.9288,5.9769 6.2579,12.78885 9.0938,18.65625 0.8383,8.6276 8.3496,14.14205 13.75,20.40625 4.0458,3.4973 6.6163,8.4545 11.0937,11.5 6.8312,4.4556 2.3075,-2.8177 -1.2812,-4.125 -5.8847,-5.6582 -13.4529,-10.5613 -16.4375,-18.4375 -3.1756,-5.7626 0.6599,-2.077 3.75,-0.4375 -0.8797,-4.0453 -8.1417,-6.9919 -10.8125,-11.25 -4.669,-4.4928 -6.3766,-10.8103 -9.1563,-16.3125 z m 100.3438,0.25 c 4.4326,15.3414 4.165,31.9221 -0.4688,47.1875 4.7385,-0.9388 4.1937,-11.60215 4.9688,-16.15625 -0.8755,-10.3286 2.0419,-21.98465 -4.5,-31.03125 z m -2.0313,2.15625 c -0.3188,-0.0315 -0.656,0.35244 -1,1.25 3.9036,12.6491 5.0194,26.5482 0.7188,39.25 -0.305,2.5647 -1.9787,5.10955 -1.3438,7.71875 5.141,-10.3819 5.9744,-22.31395 4.7188,-33.65625 -0.098,-2.60449 -1.3718,-14.39252 -3.0938,-14.5625 z m 10.3125,1.21875 c -0.1038,0.0517 -0.1454,0.62254 -0.031,2.0625 2.3225,7.3983 0.4814,-2.28649 0.031,-2.0625 z m 12.5938,2.53125 c -0.6916,-0.0397 -0.6188,6.97613 0.3125,8.90625 0.5074,2.3118 0.4933,4.69775 0.8437,7.03125 2.9214,1.1239 0.1369,-9.81085 -0.2187,-13.09375 -0.3966,-2.0382 -0.707,-2.83052 -0.9375,-2.84375 z m -15.125,2 c 2.0712,9.8902 1.4523,20.1293 -0.4063,30 3.4192,-2.1931 3.6395,-6.59825 3.5625,-10.21875 -0.6764,-6.3825 0.9238,-14.99855 -3.1562,-19.78125 z m -91.875,2.1875 c -1.1703,-0.0972 -1.9216,1.8545 0.5937,3.71875 1.3058,4.711 4.1878,3.06805 1.375,-0.84375 -0.4107,-2.01502 -1.2665,-2.81668 -1.9687,-2.875 z m 73.5937,1.34375 c 3.4148,-0.0295 0.4205,9.84225 -0.8437,13.28125 -2.2926,9.1973 -10.462,19.5186 -21.1563,17.25 -0.7766,-4.7355 9.8231,-0.4805 11.5,-4.8125 8.4421,-5.7612 8.4692,-16.78625 10.5,-25.71875 z m -78.5312,1.875 c -0.1466,0.0458 0.01,0.6131 0.75,2.09375 2.7403,2.22533 -0.3102,-2.2312 -0.75,-2.09375 z m 16.5312,1.78125 c 0.6751,1.0524 1.4385,2.047 2.25,3 5.3409,7.0712 2.3237,-2.945 -2.25,-3 z m 86.0938,0.5 c -2.0126,3.6066 0.054,15.4917 -2.5938,21.9375 l -0.031,1.375 0.1563,1.21875 c 4.1223,-0.4633 0.4945,-13.3047 4.0625,-11.25 2.5561,0.7641 -0.6333,-9.88765 -1.5938,-13.28125 z m -26.1875,2.84375 c -2.0545,9.7394 -11.5147,17.62325 -21.6875,17.40625 -0.9078,0.6018 -11.3897,-0.5806 -2.5938,-1.5625 10.7883,1.5107 19.5971,-7.18125 24.2813,-15.84375 z m -16.6875,0.875 c -0.9431,0.0389 -2.444,0.62556 -3.75,2.21875 5.3085,-0.83006 5.3218,-2.28367 3.75,-2.21875 z m 29.375,5.09375 c -0.8642,10.5559 -5.3139,20.4133 -10.4688,29.5625 1.5406,5.2761 5.4202,-5.29505 6,-6.53125 1.6652,-7.5459 7.7993,-15.11655 4.4688,-23.03125 z m -74.7813,1.65625 c -0.1858,1.7191 3.4014,1.4524 0,0 z m 57.5313,4.28125 c 0.218,0.0223 0.2611,0.36544 -0.2188,1.3125 -1.5809,0.12196 -0.2608,-1.36153 0.2188,-1.3125 z m 7.4687,0.0937 c -0.3292,0.0343 -0.778,0.82617 -1.2812,2.84375 -0.4745,1.3064 -1.1402,2.6283 -1,4.0625 3.171,-0.34898 3.269,-7.00924 2.2812,-6.90625 z m -65.75,1.8125 c -0.3469,0.0138 -0.7897,0.12893 -1.3125,0.375 0.3885,8.78483 4.6668,-0.50884 1.3125,-0.375 z m 50.3438,3.5313 c 4.4929,0.6462 -8.0598,5.90035 -10.7813,2.90625 -1.6539,-0.3943 -3.3805,-0.337 -5.0312,-0.75 -1.0157,-2.0148 11.6115,0.15225 15.8125,-2.15625 z m -44.5625,4.96875 c 6.1927,6.8273 14.6859,10.87435 22.7187,15.15625 2.0025,1.9593 16.1456,7.3834 9.875,1.8125 -12.3377,-2.4367 -21.8792,-11.09835 -32.5937,-16.96875 z m 22.8125,1.65625 c -0.2349,0.009 -0.4502,0.0415 -0.6875,0.0937 7.1607,4.10044 4.2104,-0.22653 0.6875,-0.0937 z m -10.4375,3.15625 c 0.061,2.0957 2.7244,0 0,0 z m 7.3437,0.71875 c -0.2841,0.0622 2.4649,1.82642 1.4688,3.5 l -0.5938,-0.34375 c 3.5685,3.69281 16.12,2.27542 22.8125,6.5625 -6.1124,-4.27618 -13.9008,-5.75437 -20.7812,-8.59375 -2.0264,-0.83694 -2.7771,-1.15328 -2.9063,-1.125 z m 45.625,3.65625 c -0.2408,0.0551 -0.4937,0.60538 -0.6875,1.96875 l 0.031,0.0937 0.125,0.4375 c 2.6448,6.42111 1.5751,-2.73888 0.5312,-2.5 z m -32.25,4.15625 c -0.8645,0.0266 -1.6315,0.28312 -2.1875,0.90625 0.8135,2.2302 4.2581,1.5296 6.125,2.25 8.1833,3.61977 0.7311,-3.30009 -3.9375,-3.15625 z m -18.7187,0.0312 c -0.243,0.0155 -0.4507,0.0762 -0.6563,0.15625 0.9505,1.4661 2.7058,1.99225 4.25,2.59375 7.3193,3.49013 0.051,-2.98238 -3.5937,-2.75 z m 34.7187,1.1875 c -0.6513,3.232 7.6276,3.17985 1.7188,0.90625 l -0.8438,-0.46875 -0.875,-0.4375 z m -5.5312,0.8125 c 0.371,0.26391 0.736,0.52647 1.0937,0.8125 -0.3405,-0.29678 -0.7097,-0.55717 -1.0937,-0.8125 z"
         style="fill:#ffffff"
         inkscape:connector-curvature="0" />
      <text
         sodipodi:linespacing="100%"
         id="text7578-3"
         y="410.50723"
         x="-1782.4015"
         style="font-size:8.88214207px;font-style:normal;font-variant:normal;font-weight:normal;font-stretch:normal;line-height:100%;letter-spacing:0px;word-spacing:0px;fill:#000000;fill-opacity:1;stroke:none;font-family:American Typewriter;-inkscape-font-specification:American Typewriter"
         xml:space="preserve"><tspan
           id="tspan7582-7"
           style="font-size:19.91413307px;line-height:100%"
           y="410.50723"
           x="-1782.4015"
           sodipodi:role="line"><tspan
             id="tspan4446"
             style="fill:#b4d8e7;fill-opacity:1">sprt</tspan><tspan
             id="tspan4448"
             style="fill:#ffffff">id</tspan></tspan></text>
      <text
         sodipodi:linespacing="125%"
         id="text4232"
         y="359.56265"
         x="-1841.2306"
         style="font-size:24.52504349px;font-style:normal;font-variant:normal;font-weight:500;font-stretch:normal;line-height:125%;letter-spacing:0px;word-spacing:0px;fill:#b4d8e7;fill-opacity:1;stroke:none;font-family:Ionicons;-inkscape-font-specification:Ionicons Medium"
         xml:space="preserve"><tspan
           y="359.56265"
           x="-1841.2306"
           id="tspan4234"
           sodipodi:role="line"></tspan></text>
    </g>
  </g>
</svg>
