<?xml version="1.0" encoding="UTF-8" standalone="no"?>
<!-- Created with Inkscape (http://www.inkscape.org/) -->

<svg
   xmlns:dc="http://purl.org/dc/elements/1.1/"
   xmlns:cc="http://creativecommons.org/ns#"
   xmlns:rdf="http://www.w3.org/1999/02/22-rdf-syntax-ns#"
   xmlns:svg="http://www.w3.org/2000/svg"
   xmlns="http://www.w3.org/2000/svg"
   xmlns:sodipodi="http://sodipodi.sourceforge.net/DTD/sodipodi-0.dtd"
   xmlns:inkscape="http://www.inkscape.org/namespaces/inkscape"
   width="1536"
   height="2048"
   id="svg2"
   version="1.1"
   inkscape:version="0.48.2 r9819"
   sodipodi:docname="ios-ipad-2x.svg">
  <defs
     id="defs4">
    <clipPath
       id="clipPath3083"
       clipPathUnits="userSpaceOnUse">
      <path
         id="path3085"
         d="M 0,0 648,0 648,294 0,294 0,0 z"
         inkscape:connector-curvature="0" />
    </clipPath>
  </defs>
  <sodipodi:namedview
     id="base"
     pagecolor="#000000"
     bordercolor="#666666"
     borderopacity="1.0"
     inkscape:pageopacity="1"
     inkscape:pageshadow="2"
     inkscape:zoom="0.175"
     inkscape:cx="-775.2747"
     inkscape:cy="842.44431"
     inkscape:document-units="px"
     inkscape:current-layer="layer3"
     showgrid="false"
     inkscape:window-width="1280"
     inkscape:window-height="752"
     inkscape:window-x="0"
     inkscape:window-y="0"
     inkscape:window-maximized="1"
     borderlayer="true"
     inkscape:showpageshadow="false" />
  <metadata
     id="metadata7">
    <rdf:RDF>
      <cc:Work
         rdf:about="">
        <dc:format>image/svg+xml</dc:format>
        <dc:type
           rdf:resource="http://purl.org/dc/dcmitype/StillImage" />
        <dc:title></dc:title>
      </cc:Work>
    </rdf:RDF>
  </metadata>
  <g
     inkscape:groupmode="layer"
     id="layer2"
     inkscape:label="ios-ipad-vertical-h:2048"
     style="display:inline">
    <rect
       style="fill:#000000;fill-opacity:1;stroke:none"
       id="rect4037"
       width="1536"
       height="2048"
       x="0"
       y="0"
       inkscape:export-filename="/Users/pmn/code/personal/sprtid/identity/platforms/ios/sprtid-identity/Resources/splash/Default-Portrait@2x~ipad.png"
       inkscape:export-xdpi="90"
       inkscape:export-ydpi="90" />
  </g>
  <g
     inkscape:groupmode="layer"
     id="layer3"
     inkscape:label="ios-ipad-horizontal-h:1536"
     style="display:inline">
    <rect
       y="-1792"
       x="256"
       height="2048"
       width="1536"
       id="rect4040"
       style="fill:#000000;fill-opacity:1;stroke:none"
       transform="matrix(0,1,-1,0,0,0)"
       inkscape:export-filename="/Users/pmn/code/personal/sprtid/identity/platforms/ios/sprtid-identity/Resources/splash/Default-Landscape@2x~ipad.png"
       inkscape:export-xdpi="90"
       inkscape:export-ydpi="90" />
  </g>
  <g
     inkscape:groupmode="layer"
     id="layer4"
     inkscape:label="ios-iphone-h:960">
    <rect
       style="fill:#000000;fill-opacity:1;stroke:none"
       id="rect4044"
       width="1536"
       height="2304"
       x="0"
       y="-128"
       inkscape:export-filename="/Users/pmn/code/personal/sprtid/identity/platforms/ios/sprtid-identity/Resources/splash/Default@2x~iphone.png"
       inkscape:export-xdpi="37.5"
       inkscape:export-ydpi="37.5" />
  </g>
  <g
     inkscape:groupmode="layer"
     id="layer5"
     inkscape:label="ios-iphone5-h:1136">
    <rect
       style="fill:#000000;fill-opacity:1;stroke:none"
       id="rect4047"
       width="1536"
       height="2726.3999"
       x="0"
       y="-339.19995"
       inkscape:export-filename="/Users/pmn/code/personal/sprtid/identity/platforms/ios/sprtid-identity/Resources/splash/Default-568h@2x~iphone.png"
       inkscape:export-xdpi="37.5"
       inkscape:export-ydpi="37.5" />
  </g>
  <g
     inkscape:label="detail"
     inkscape:groupmode="layer"
     id="layer1"
     transform="translate(0,995.63782)"
     sodipodi:insensitive="true">
    <g
       id="g4360"
       transform="matrix(2.4764466,0,0,2.4764466,852.97618,-896.5117)">
      <g
         inkscape:export-ydpi="136.78845"
         inkscape:export-xdpi="136.78845"
         inkscape:export-filename="/Users/pmn/code/personal/sprtid/common/img/logo/dog-tag/tags.png"
         transform="matrix(0.83848976,0.54491734,-0.54491734,0.83848976,-301.88141,-234.4428)"
         id="g3952">
        <path
           id="path3954"
           d="m 460,271.65625 c -16.62,0 -30,33.45 -30,75 0,41.55 13.38,75 30,75 l 182.71875,0 c 16.62,0 30,-33.45 30,-75 0,-41.55 -13.38,-75 -30,-75 l -182.71875,0 z m -3,66.40625 c 4.73387,0 8.5625,3.85988 8.5625,8.59375 0,4.73387 -3.82863,8.5625 -8.5625,8.5625 -4.73387,0 -8.5625,-3.82863 -8.5625,-8.5625 0,-4.73387 3.82863,-8.59375 8.5625,-8.59375 z"
           style="fill:#b4d8e7;fill-opacity:1;stroke:none"
           inkscape:connector-curvature="0" />
        <g
           style="fill:#68b2d0;fill-opacity:1"
           id="g3956">
          <path
             inkscape:connector-curvature="0"
             d="m 655.78125,279.09375 c 10.02967,12.10965 16.9375,37.75239 16.9375,67.5625 0,41.55 -13.38,75 -30,75 l -182.71875,0 c -3.21097,0 -6.29152,-1.27945 -9.1875,-3.59375 3.97834,4.8554 8.4465,7.59375 13.1875,7.59375 l 182.71875,0 c 16.62,0 30,-33.45 30,-75 0,-33.64797 -8.77331,-62.00158 -20.9375,-71.5625 z"
             id="path3958" />
          <path
             inkscape:connector-curvature="0"
             d="m 460,274.1875 c -3.30789,0 -6.60062,1.64287 -9.875,5.09375 -3.27438,3.45088 -6.37136,8.64714 -9,15.21875 -5.25729,13.14322 -8.59375,31.65233 -8.59375,52.15625 0,20.50392 3.33646,39.01303 8.59375,52.15625 2.62864,6.57161 5.72562,11.76787 9,15.21875 0.52148,0.54959 1.0401,1.04146 1.5625,1.5 -3.11051,-3.44483 -6.05267,-8.44416 -8.5625,-14.71875 -5.25729,-13.14322 -8.59375,-31.65233 -8.59375,-52.15625 0,-20.50392 3.33646,-39.01303 8.59375,-52.15625 2.62864,-6.57161 5.72562,-11.76787 9,-15.21875 3.27438,-3.45088 6.56711,-5.09375 9.875,-5.09375 l 182.71875,0 c 2.78108,0 5.55475,1.17311 8.3125,3.59375 -0.14724,-0.16307 -0.2895,-0.34403 -0.4375,-0.5 -3.27438,-3.45088 -6.56711,-5.09375 -9.875,-5.09375 l -182.71875,0 z"
             id="path3960" />
          <path
             inkscape:connector-curvature="0"
             d="m 457,338.0625 c -4.73387,0 -8.5625,3.85988 -8.5625,8.59375 0,3.4048 1.96769,6.33565 4.84375,7.71875 -0.54924,-1.13046 -0.84375,-2.37749 -0.84375,-3.71875 0,-4.73387 3.82863,-8.59375 8.5625,-8.59375 1.3314,0 2.59458,0.33332 3.71875,0.875 -1.38429,-2.87287 -4.31628,-4.875 -7.71875,-4.875 z"
             id="path3962" />
          <path
             inkscape:connector-curvature="0"
             d="m 465.34375,340.3125 c 1.34313,1.76427 2.15625,3.9619 2.15625,6.34375 0,5.78689 -4.71311,10.5 -10.5,10.5 -2.379,0 -4.58055,-0.81603 -6.34375,-2.15625 1.92057,2.51554 4.94395,4.15625 8.34375,4.15625 5.78689,0 10.5,-4.71311 10.5,-10.5 0,-3.40504 -1.63409,-6.42364 -4.15625,-8.34375 z"
             id="path3964" />
          <text
             xml:space="preserve"
             style="font-size:35.11235809px;font-style:normal;font-variant:normal;font-weight:normal;font-stretch:normal;letter-spacing:0px;word-spacing:0px;writing-mode:lr-tb;text-anchor:start;font-family:American Typewriter;-inkscape-font-specification:American Typewriter"
             x="487.45514"
             y="317.8595"
             id="text3966"><tspan
               sodipodi:role="line"
               id="tspan3968"
               x="487.45514"
               y="317.8595">SPRTID</tspan></text>
        </g>
      </g>
      <g
         inkscape:export-ydpi="136.78845"
         inkscape:export-xdpi="136.78845"
         inkscape:export-filename="/Users/pmn/code/personal/sprtid/common/img/logo/dog-tag/tags.png"
         transform="matrix(0.83256765,-0.55392338,0.55392338,0.83256765,-940.14822,103.60027)"
         id="g3996">
        <path
           inkscape:connector-curvature="0"
           style="fill:#f7c3b1;fill-opacity:1;stroke:none"
           d="m 653.99746,621.3807 c -2.5502,-16.42318 -37.65712,-24.51211 -78.71507,-18.13662 -41.05796,6.3755 -72.05879,24.72966 -69.50859,41.15285 l 28.03663,180.55494 c 2.5502,16.42318 37.65712,24.51212 78.71508,18.13662 41.05795,-6.37549 72.05878,-24.72966 69.50858,-41.15284 L 653.99746,621.3807 z m -66.08017,7.225 c 0.72637,4.67781 -2.50033,9.05337 -7.17814,9.77974 -4.67781,0.72637 -9.04857,-2.46945 -9.77495,-7.14726 -0.72637,-4.67781 2.46945,-9.04857 7.14726,-9.77494 4.67781,-0.72637 9.07945,2.46465 9.80583,7.14246 z"
           id="path3972" />
        <g
           id="g3974"
           style="fill:#cd4514;fill-opacity:1"
           transform="matrix(0.15344147,0.98815774,-0.98815774,0.15344147,851.85361,125.14481)">
          <path
             id="path3976"
             d="m 655.78125,279.09375 c 10.02967,12.10965 16.9375,37.75239 16.9375,67.5625 0,41.55 -13.38,75 -30,75 l -182.71875,0 c -3.21097,0 -6.29152,-1.27945 -9.1875,-3.59375 3.97834,4.8554 8.4465,7.59375 13.1875,7.59375 l 182.71875,0 c 16.62,0 30,-33.45 30,-75 0,-33.64797 -8.77331,-62.00158 -20.9375,-71.5625 z"
             inkscape:connector-curvature="0"
             style="fill:#cd4514;fill-opacity:1" />
          <path
             id="path3978"
             d="m 460,274.1875 c -3.30789,0 -6.60062,1.64287 -9.875,5.09375 -3.27438,3.45088 -6.37136,8.64714 -9,15.21875 -5.25729,13.14322 -8.59375,31.65233 -8.59375,52.15625 0,20.50392 3.33646,39.01303 8.59375,52.15625 2.62864,6.57161 5.72562,11.76787 9,15.21875 0.52148,0.54959 1.0401,1.04146 1.5625,1.5 -3.11051,-3.44483 -6.05267,-8.44416 -8.5625,-14.71875 -5.25729,-13.14322 -8.59375,-31.65233 -8.59375,-52.15625 0,-20.50392 3.33646,-39.01303 8.59375,-52.15625 2.62864,-6.57161 5.72562,-11.76787 9,-15.21875 3.27438,-3.45088 6.56711,-5.09375 9.875,-5.09375 l 182.71875,0 c 2.78108,0 5.55475,1.17311 8.3125,3.59375 -0.14724,-0.16307 -0.2895,-0.34403 -0.4375,-0.5 -3.27438,-3.45088 -6.56711,-5.09375 -9.875,-5.09375 l -182.71875,0 z"
             inkscape:connector-curvature="0"
             style="fill:#cd4514;fill-opacity:1" />
          <path
             id="path3980"
             d="m 457,338.0625 c -4.73387,0 -8.5625,3.85988 -8.5625,8.59375 0,3.4048 1.96769,6.33565 4.84375,7.71875 -0.54924,-1.13046 -0.84375,-2.37749 -0.84375,-3.71875 0,-4.73387 3.82863,-8.59375 8.5625,-8.59375 1.3314,0 2.59458,0.33332 3.71875,0.875 -1.38429,-2.87287 -4.31628,-4.875 -7.71875,-4.875 z"
             inkscape:connector-curvature="0"
             style="fill:#cd4514;fill-opacity:1" />
          <path
             id="path3982"
             d="m 465.34375,340.3125 c 1.34313,1.76427 2.15625,3.9619 2.15625,6.34375 0,5.78689 -4.71311,10.5 -10.5,10.5 -2.379,0 -4.58055,-0.81603 -6.34375,-2.15625 1.92057,2.51554 4.94395,4.15625 8.34375,4.15625 5.78689,0 10.5,-4.71311 10.5,-10.5 0,-3.40504 -1.63409,-6.42364 -4.15625,-8.34375 z"
             inkscape:connector-curvature="0"
             style="fill:#cd4514;fill-opacity:1" />
          <text
             id="text3984"
             y="317.8595"
             x="487.45514"
             style="font-size:35.11235809px;font-style:normal;font-variant:normal;font-weight:normal;font-stretch:normal;letter-spacing:0px;word-spacing:0px;writing-mode:lr-tb;text-anchor:start;fill:#cd4514;fill-opacity:1;font-family:American Typewriter;-inkscape-font-specification:American Typewriter"
             xml:space="preserve"><tspan
               y="317.8595"
               x="487.45514"
               id="tspan3986"
               sodipodi:role="line">SPRTID</tspan></text>
        </g>
      </g>
    </g>
  </g>
</svg>
