<?xml version="1.0" encoding="UTF-8" standalone="no"?>
<!-- Created with Inkscape (http://www.inkscape.org/) -->

<svg
   xmlns:dc="http://purl.org/dc/elements/1.1/"
   xmlns:cc="http://creativecommons.org/ns#"
   xmlns:rdf="http://www.w3.org/1999/02/22-rdf-syntax-ns#"
   xmlns:svg="http://www.w3.org/2000/svg"
   xmlns="http://www.w3.org/2000/svg"
   xmlns:xlink="http://www.w3.org/1999/xlink"
   xmlns:sodipodi="http://sodipodi.sourceforge.net/DTD/sodipodi-0.dtd"
   xmlns:inkscape="http://www.inkscape.org/namespaces/inkscape"
   width="652.11102"
   height="671.875"
   id="svg2"
   version="1.1"
   inkscape:version="0.48.2 r9819"
   sodipodi:docname="splashscreen.svg">
  <defs
     id="defs4">
    <linearGradient
       id="linearGradient684">
      <stop
         style="stop-color:#ffe51a;stop-opacity:1"
         offset="0"
         id="stop685" />
      <stop
         style="stop-color:#e60000;stop-opacity:0"
         offset="1"
         id="stop686" />
    </linearGradient>
    <linearGradient
       id="linearGradient649">
      <stop
         style="stop-color:white;stop-opacity:1"
         offset="0"
         id="stop650" />
      <stop
         style="stop-color:black;stop-opacity:0.47839999"
         offset="1"
         id="stop651" />
    </linearGradient>
    <linearGradient
       x1="0.39680198"
       y1="0.57735848"
       x2="1.0363363"
       y2="-0.29056594"
       id="linearGradient652"
       xlink:href="#linearGradient684"
       gradientUnits="objectBoundingBox"
       spreadMethod="pad" />
    <radialGradient
       cx="314.36707"
       cy="622.33319"
       r="129.41486"
       fx="314.36707"
       fy="622.33319"
       id="radialGradient653"
       xlink:href="#linearGradient649"
       gradientUnits="userSpaceOnUse"
       gradientTransform="matrix(1.199174,0,0,0.833907,115.0647,295.6275)" />
    <radialGradient
       cx="77.703499"
       cy="2006.7791"
       r="25.94915"
       fx="77.703499"
       fy="2006.7791"
       id="radialGradient654"
       xlink:href="#linearGradient649"
       gradientUnits="userSpaceOnUse"
       gradientTransform="matrix(3.005688,0,0,0.332703,115.0647,295.6275)" />
    <radialGradient
       cx="636.95264"
       cy="873.31403"
       r="84.825462"
       fx="636.95264"
       fy="873.31403"
       id="radialGradient875"
       xlink:href="#linearGradient649"
       gradientUnits="userSpaceOnUse"
       gradientTransform="matrix(0.928657,0,0,1.076824,115.0647,295.6275)" />
    <radialGradient
       cx="248.86224"
       cy="353.91174"
       r="82.692696"
       fx="248.86224"
       fy="353.91174"
       id="radialGradient877"
       xlink:href="#linearGradient649"
       gradientUnits="userSpaceOnUse"
       gradientTransform="matrix(0.551858,0,0,1.812061,115.0647,295.6275)" />
    <radialGradient
       cx="0.17181525"
       cy="0.10937142"
       r="1.6589482"
       fx="0.17181525"
       fy="0.10937142"
       id="radialGradient683"
       xlink:href="#linearGradient684" />
    <radialGradient
       id="radialGradient687"
       xlink:href="#linearGradient684" />
    <radialGradient
       cx="254.25938"
       cy="1441.0841"
       r="42.647346"
       fx="254.25938"
       fy="1441.0841"
       id="radialGradient1363"
       xlink:href="#linearGradient649"
       gradientUnits="userSpaceOnUse"
       gradientTransform="matrix(2.012624,0,0,0.496864,115.0647,295.6275)" />
    <radialGradient
       cx="769.30896"
       cy="373.53033"
       r="57.68771"
       fx="769.30896"
       fy="373.53033"
       id="radialGradient1365"
       xlink:href="#linearGradient649"
       gradientUnits="userSpaceOnUse"
       gradientTransform="matrix(0.598213,0,0,1.671646,115.0647,295.6275)" />
    <radialGradient
       cx="310.91577"
       cy="585.31793"
       r="75.703461"
       fx="310.91577"
       fy="585.31793"
       id="radialGradient1367"
       xlink:href="#linearGradient649"
       gradientUnits="userSpaceOnUse"
       gradientTransform="matrix(0.974096,0,0,1.026593,115.0647,295.6275)" />
    <radialGradient
       cx="314.36707"
       cy="622.33319"
       r="129.41486"
       fx="314.36707"
       fy="622.33319"
       id="radialGradient1413"
       xlink:href="#linearGradient649"
       gradientUnits="userSpaceOnUse"
       gradientTransform="matrix(1.199174,0,0,0.833907,104.0303,285.4069)" />
    <radialGradient
       cx="254.25938"
       cy="1441.0841"
       r="42.647346"
       fx="254.25938"
       fy="1441.0841"
       id="radialGradient1415"
       xlink:href="#linearGradient649"
       gradientUnits="userSpaceOnUse"
       gradientTransform="matrix(2.012624,0,0,0.496864,104.0303,285.4069)" />
    <radialGradient
       cx="769.30896"
       cy="373.53033"
       r="57.68771"
       fx="769.30896"
       fy="373.53033"
       id="radialGradient1417"
       xlink:href="#linearGradient649"
       gradientUnits="userSpaceOnUse"
       gradientTransform="matrix(0.598213,0,0,1.671646,104.0303,285.4069)" />
    <radialGradient
       cx="310.91577"
       cy="585.31793"
       r="75.703461"
       fx="310.91577"
       fy="585.31793"
       id="radialGradient1419"
       xlink:href="#linearGradient649"
       gradientUnits="userSpaceOnUse"
       gradientTransform="matrix(0.974096,0,0,1.026593,104.0303,285.4069)" />
    <radialGradient
       cx="77.703499"
       cy="2006.7791"
       r="25.94915"
       fx="77.703499"
       fy="2006.7791"
       id="radialGradient1421"
       xlink:href="#linearGradient649"
       gradientUnits="userSpaceOnUse"
       gradientTransform="matrix(3.005688,0,0,0.332703,104.0303,285.4069)" />
    <radialGradient
       cx="636.95264"
       cy="873.31403"
       r="84.825462"
       fx="636.95264"
       fy="873.31403"
       id="radialGradient1423"
       xlink:href="#linearGradient649"
       gradientUnits="userSpaceOnUse"
       gradientTransform="matrix(0.928657,0,0,1.076824,104.0303,285.4069)" />
    <radialGradient
       cx="248.86224"
       cy="353.91174"
       r="82.692696"
       fx="248.86224"
       fy="353.91174"
       id="radialGradient1425"
       xlink:href="#linearGradient649"
       gradientUnits="userSpaceOnUse"
       gradientTransform="matrix(0.551858,0,0,1.812061,104.0303,285.4069)" />
    <clipPath
       clipPathUnits="userSpaceOnUse"
       id="clipPath4506">
      <path
         style="fill:#00ff00;fill-opacity:1;stroke:none"
         d="m -1338.0557,-303.58566 0,652.11101 3812.111,0 0,-652.11101 z m 2154.87881,26.23741 c 12.63275,0.26357 24.77288,2.97825 36.51142,6.62301 0.0272,-0.42333 -0.21193,-0.74395 -0.0842,-1.18875 0.6638,-2.30141 2.39434,-3.29533 3.31137,-3.73605 1.79466,-0.86051 2.72474,-0.84394 3.99092,-0.93415 1.21591,-0.0815 2.61551,-0.0299 4.33029,0 l 0.16846,0 c 3.53689,-1.02218 7.10203,-0.99094 10.4441,-0.25541 4.21753,0.9298 8.12911,2.55193 11.29293,4.33029 1.58191,0.88959 2.96874,1.76369 4.24552,3.05677 0.63879,0.64695 1.41535,1.3602 1.95307,2.80218 0.53772,1.44225 0.40974,4.30121 -0.93415,6.02849 -0.60619,0.77927 -1.16076,0.66407 -1.78298,1.01892 19.07262,3.68362 38.68214,6.37846 58.24846,10.6987 2.33863,0.5149 4.16835,2.70137 4.24551,5.09462 0.0761,2.39324 -1.60528,4.76965 -3.90587,5.43426 -6.84825,2.0642 -13.51201,2.72202 -20.12388,2.71712 15.48221,2.88288 30.86143,5.68451 46.44607,9.08554 2.89129,0.62766 4.88241,3.94636 4.07569,6.79282 -1.37025,4.749 -5.69103,7.44086 -9.93464,8.57581 7.16398,1.53056 13.8291,3.97815 18.68027,9.25535 2.42938,2.70545 1.01647,7.77262 -2.46227,8.83067 -2.64675,0.77303 -5.21444,1.14609 -7.81174,1.35857 6.21163,2.25739 12.41266,4.26535 18.42539,7.21724 1.68707,0.81188 2.89103,2.5503 3.05677,4.41533 0.1902,2.46281 -0.14129,5.21037 -2.03784,7.47211 -0.88524,1.05669 -1.9884,1.74521 -3.14155,2.20767 3.32495,1.52594 6.72027,3.02769 10.01937,4.58515 2.0096,0.97844 3.316,3.29914 3.0568,5.51931 -0.2581,2.22016 -2.0645,4.1803 -4.2455,4.66993 -4.30991,0.91866 -8.43478,0.9442 -12.3969,0.5945 5.99942,3.48282 12.0404,6.92678 17.7461,10.86852 2.0824,1.33873 3.0116,4.22731 2.1229,6.53796 -0.8888,2.31091 -3.5008,3.798 -5.9437,3.39641 -2.7881,-0.37605 -5.36091,-1.08767 -7.98158,-1.78298 1.92182,1.43519 4.00198,2.42341 5.85868,3.99065 0.6828,0.59342 1.2132,1.35992 1.5283,2.20766 0.8625,2.2506 1.7243,4.0545 1.019,7.04769 -0.3524,1.49687 -1.5915,3.34098 -3.2266,4.24552 -0.2731,0.14944 -0.4967,0.23639 -0.7641,0.33964 15.3825,20.83739 -1.89541,12.52352 -2.8869,14.60457 -1.05995,2.22505 11.3989,8.20926 10.5289,11.29293 -1.9971,7.080023 -11.13183,-1.621039 -12.2271,2.122893 -1.04419,3.569493 22.1065,19.335091 -0.50946,16.897011 2.15359,3.642855 3.68986,7.714202 4.07569,12.481948 0.17661,2.022088 -0.8885,4.140362 -2.63235,5.179392 -1.74359,1.039302 -4.0795,0.946648 -5.7739,-0.168462 -1.54687,1.721573 -3.70753,2.786416 -5.94372,3.311637 0.15487,0.187482 0.34317,0.394256 0.50946,0.594236 0.93632,1.131413 1.96774,2.3889 2.97199,3.821099 2.00878,2.864398 4.02407,6.229291 5.60408,9.170311 0.78987,1.470511 1.53328,2.795383 2.03785,4.160468 0.25541,0.682 0.44615,1.310472 0.59424,2.207668 0.144,0.898826 0.52223,2.212286 -0.67929,4.33056 -0.59994,1.058866 -1.88052,2.097352 -3.14154,2.547309 -1.26102,0.448598 -2.28701,0.392897 -3.05677,0.25541 -1.53926,-0.277419 -2.30413,-0.790684 -3.05677,-1.273518 -0.62739,-0.402951 -1.3227,-1.179506 -1.95307,-1.698206 1.09255,1.61479 2.37613,3.168988 3.39641,4.839751 1.23385,2.150064 0.75454,5.151948 -1.1037,6.792823 -1.85825,1.640874 -4.89708,1.745212 -6.87787,0.25541 -0.13314,-0.100534 -0.2065,-0.236391 -0.33964,-0.339641 1.36019,3.580361 2.25576,7.4547152 1.86803,11.7176192 -0.18477,1.9473665 -1.5072,3.7444757 -3.31137,4.50010936 0.26084,0.51272228 0.6282,0.98903503 0.8491,1.52838517 1.61452,3.94065247 1.44552,9.40507127 -1.6982,13.33105127 -1.95715,2.482369 -6.21544,2.612248 -8.32121,0.25541 -0.41355,-0.46164 -0.69531,-0.893664 -1.10397,-1.358565 3.21681,6.768913 6.0323,13.643249 8.15139,20.803157 0.17389,0.547773 0.26084,1.123261 0.25541,1.698205 -0.038,1.403669 -0.0598,2.681535 -1.01893,4.415335 -0.95996,1.733529 -4.04254,3.498848 -6.19858,3.311366 -2.15577,-0.187482 -3.119,-1.025988 -3.99065,-1.698206 -0.39752,-0.306492 -0.69124,-0.620321 -1.01892,-0.933877 1.02897,3.470045 2.36254,6.905855 3.14154,10.443829 0.29019,1.388181 0,2.88695 -0.76406,4.075694 -0.86268,1.30232 -2.23619,3.001341 -4.75497,3.481458 -0.98931,0.187481 -1.93732,-0.03532 -2.80218,-0.255411 -1.25015,1.652015 -3.24343,2.666863 -5.17939,2.971996 -0.0897,0.604562 0.0462,1.09609 -0.25541,1.868027 -0.47713,1.26591 -2.1881,3.020904 -4.16047,3.651006 1.86803,3.280118 3.91892,6.331998 5.68886,9.679773 0.18204,0.351053 0.32388,0.721941 0.42468,1.103969 0.7377,2.617139 0.79884,5.159014 0.16847,7.472106 -0.62821,2.312548 -1.86885,4.646019 -4.67021,5.94372 -2.80081,1.298244 -6.78739,0.149442 -8.66085,-1.953073 -0.89447,-1.004522 -1.55963,-2.206037 -2.03784,-3.396411 -0.087,0.07064 -0.0761,0.190199 -0.16846,0.25541 -0.57495,0.416264 -1.17136,0.39181 -1.78298,0.594236 0.33936,1.725106 1.02435,4.131123 2.03784,7.387331 1.22814,3.942826 2.51362,8.286701 2.88695,12.651501 0.18748,2.18185 0.14944,4.43028 -0.67928,6.79282 -0.83008,2.36254 -2.76441,4.83785 -5.34948,6.02877 -2.56144,1.14717 -5.93041,-0.0951 -7.13247,-2.63236 l -1.44334,-3.05677 c -0.0571,-0.0272 -0.11412,-0.0543 -0.16846,-0.0842 -0.37225,0.55239 -0.41708,1.16483 -0.8491,1.6982 -0.53147,0.61951 -1.20478,1.11702 -1.95308,1.44334 0.1739,0.93877 0.36274,1.52676 0.50947,2.46254 0.76514,4.85578 1.17325,9.74118 0.42468,14.3497 -0.74857,4.60825 -3.06274,9.37872 -7.64192,11.97249 -0.77656,0.42985 -1.6599,0.66542 -2.54731,0.67928 -0.1902,2.08947 0.0408,4.19144 -0.25541,6.28336 -0.25813,1.72945 -1.40367,3.3024 -2.97172,4.07569 0.43528,0.89095 1.01892,1.74522 1.35856,2.63209 0.44805,1.1719 0.77846,2.22804 0.93388,3.73605 0.0788,0.75428 0.2785,1.57974 -0.25541,3.05677 -0.53147,1.47758 -2.7943,3.63009 -4.84003,3.90587 -2.04518,0.27579 -3.1611,-0.32035 -3.99064,-0.76405 -0.82927,-0.44398 -1.40883,-0.90915 -2.03785,-1.44361 -0.13314,-0.11412 -0.29046,-0.30459 -0.42469,-0.42442 -0.57793,2.62583 -1.25422,5.00984 -3.82082,7.38706 -1.39851,1.29553 -4.03766,1.97399 -6.36841,1.69821 -0.0272,0.16302 0.0272,0.34833 0,0.50946 -0.21737,1.64359 -0.3785,3.22795 -1.9528,5.26444 -0.78688,1.01865 -2.15496,2.17261 -3.8211,2.5473 -1.66642,0.37442 -3.21029,0.0571 -4.33029,-0.42441 -0.26628,-0.11956 -0.52142,-0.26356 -0.76433,-0.42469 -0.0435,0.65782 0.3084,1.27352 0.0842,1.78325 -0.66569,1.52567 -1.50175,2.21338 -2.20767,2.71713 -1.41127,1.00697 -2.6348,1.30939 -3.90587,1.61316 -2.54214,0.60701 -5.32503,0.8616 -8.49103,-0.0842 -3.12334,-0.9336 -6.93954,-4.06537 -7.55715,-8.40625 -1.92373,0.11683 -4.01592,-0.0978 -6.11354,-0.33964 -0.26899,0.32143 -0.29399,0.81296 -0.59424,1.10396 0.10326,0.0299 0.23096,0.14401 0.33965,0.16847 0.0571,0.0272 0.1114,0.0543 0.16846,0.0842 1.13386,0.32116 2.39732,0.66298 3.651,1.18874 2.2938,1.26483 3.43174,4.35964 2.46254,6.79283 -0.9692,2.43346 -3.91783,3.88495 -6.45318,3.22659 -0.83769,-0.31003 -1.76505,-0.55267 -2.71713,-0.84911 0.24454,0.5043 0.56299,0.61109 0.67928,1.35857 0.32171,2.08268 -0.94176,4.69139 -2.20767,5.68912 -2.53128,1.99519 -4.07868,1.68109 -6.11354,1.78298 -1.9634,0.0978 -4.35583,0.0272 -7.38733,-0.25541 -0.0272,0 -0.30133,-8.1e-4 -0.33964,0 -0.0951,-2.7e-4 -0.55538,0.0734 -0.67928,0.0842 0.5081,0.68744 1.12435,1.20777 1.35856,2.37749 0.40974,2.04165 -0.54016,4.59467 -1.6982,5.7739 -2.31581,2.35765 -4.09119,2.3707 -6.0285,2.71713 -1.93704,0.34616 -4.0651,0.44724 -6.36841,0.50946 -4.60662,0.12499 -9.86997,-0.14129 -14.60457,-0.67928 -2.77581,-0.31464 -4.75687,-1.02517 -6.96264,-1.52839 -0.0706,1.81885 -0.78579,3.94935 -1.86803,4.84003 -2.85597,2.3495 -4.03629,1.59305 -5.85867,1.61316 -1.70201,0.0272 -3.84311,-0.10869 -6.45318,-0.42442 l -0.50946,0 c -4.18302,-0.1739 -10.42345,0.12771 -15.87836,-4.24551 -2.17588,-1.77402 -2.5772,-5.34432 -0.84911,-7.55715 -1.90552,-0.37796 -3.78496,-0.59968 -5.68885,-1.01893 0.20922,1.03468 0.41871,2.24136 -0.0842,3.56623 -0.62032,1.62784 -1.96802,2.9614 -3.14154,3.56624 -2.34679,1.21021 -4.17542,1.02463 -6.19859,0.8491 -2.02263,-0.1739 -4.25964,-0.59967 -7.13247,-1.35857 l -0.0842,-0.0842 c -15.85716,-4.51831 -26.93082,-15.43465 -39.05873,-20.46351 -0.23367,-0.0978 -0.4611,-0.21194 -0.67928,-0.33964 -18.11836,-10.85004 -43.25941,-18.88133 -54.34258,-41.94569 -5.506,-5.58886 -14.43231,-11.63121 -22.58614,-18.25557 -8.26877,-6.7181 -16.15958,-14.28232 -17.91621,-24.7938 -0.2065,-1.24635 0.038,-2.5628 0.67928,-3.65128 -1.77999,-1.648757 -3.62981,-3.213552 -4.92479,-5.179395 -0.97083,-1.474314 -2.08268,-3.332559 -1.69821,-6.198587 0.14944,-1.110219 0.70863,-2.077245 1.35857,-2.971724 -0.64885,-0.710801 -0.95317,-1.408831 -1.27352,-2.037847 -0.39562,-0.780359 -0.61353,-1.691141 -0.93415,-2.632355 -2.53101,-2.613606 -4.32105,-5.527727 -5.17939,-8.321208 -0.50974,-1.660437 -0.87981,-3.260555 -0.84911,-4.924796 0.0299,-1.664242 -0.10053,-3.978693 2.71713,-6.113541 0.72276,-0.547773 1.68816,-0.767317 2.63209,-0.933877 -8.58341,-14.053808 -10.14196,-29.706917 -8.06634,-44.832632 2.26581,-16.51960232 8.28316,-32.700107 13.16095,-46.870479 0.0516,-0.114119 0.11141,-0.228239 0.16847,-0.339641 7.53133,-18.125426 22.54184,-30.998097 39.90783,-38.549271 -1.70011,0.209219 -3.39532,0.298341 -5.09462,0.509462 -3.2236,0.679554 -6.39096,1.350685 -9.50995,2.207668 -2.39895,0.580107 -5.13401,-0.745309 -6.19831,-2.971996 -1.06403,-2.226959 -0.34481,-5.120974 1.61316,-6.623003 5.88204,-4.244427 12.09204,-6.77815 18.42566,-8.491028 -0.62874,-0.149443 -1.23901,-0.08967 -1.86802,-0.255411 -2.38102,-0.690422 -4.10341,-3.217896 -3.90588,-5.689125 0.19836,-2.471229 2.29462,-4.621837 4.75498,-4.924796 7.52645,-0.700476 15.4697,-1.616149 23.43524,-2.292442 -2.0767,-0.702922 -4.19144,-1.240098 -6.02877,-2.632355 -1.53599,-1.189831 -2.34895,-3.261371 -2.03784,-5.179391 0.31138,-1.91802 1.73298,-3.6021 3.56623,-4.24552 -1.77782,-2.45981 -0.93361,-6.38525 1.6982,-7.89679 l 0.76433,-0.42441 0.0842,-0.16847 0.16847,0 0.50946,-0.33964 c 0.76107,-0.48908 1.64549,-0.78389 2.54731,-0.8491 -0.45213,-0.68281 -1.02001,-1.19554 -1.1037,-2.29271 -0.13042,-1.71777 0.62331,-3.29425 1.27352,-4.0757 0.65048,-0.7809 1.26672,-1.18956 1.6982,-1.44334 2.09083,-1.22814 2.82989,-1.02354 4.58516,-1.35856 0.16846,-0.0353 0.33882,-0.0652 0.50946,-0.0842 0.52087,-0.0516 1.09201,-0.0326 1.61343,-0.0842 -2.32668,-1.10723 -4.53081,-2.47775 -6.623,-4.33056 -1.61017,-1.48763 -2.18213,-3.9969 -1.35857,-6.0285 0.82357,-2.03132 2.98803,-3.44994 5.1794,-3.39641 2.15142,0.0842 4.37566,0.1739 6.53822,0.25541 -0.52658,-0.50104 -1.1469,-1.04229 -1.44361,-1.44334 -0.83932,-1.13549 -1.18222,-1.68951 -1.01892,-1.52838 -1.50149,-1.51888 -2.0191,-3.97598 -1.18874,-5.94372 0.83062,-1.96802 2.95895,-3.32767 5.09461,-3.31164 4.18873,0.0761 8.30735,0.38339 12.48195,0.59451 -1.74983,-0.75047 -3.48472,-1.16891 -5.17966,-2.1229 -2.05768,-1.22189 -3.13774,-3.90261 -2.46226,-6.19831 0.6752,-2.29597 3.04264,-3.99255 5.43425,-3.90587 3.85615,0.25269 7.5558,1.045 11.37798,1.44334 -1.34987,-2.83533 0.37986,-6.68387 3.39641,-7.55688 2.39624,-0.69314 4.75607,-0.97083 7.13247,-1.44362 -2.49487,-0.87926 -4.91475,-2.06338 -7.21751,-3.56623 -0.23639,-0.12499 -0.46382,-0.26628 -0.67928,-0.42441 -0.087,-0.0272 -0.17118,-0.0543 -0.25541,-0.0842 -0.0978,-0.0625 -0.22824,-0.26628 -0.33965,-0.33965 -0.144,-0.0788 -0.2872,-0.16302 -0.42468,-0.25541 -0.6013,-0.41599 -1.15342,-0.73851 -1.86803,-1.52838 -1.80689,-2.03024 -1.72076,-5.43399 0.16846,-7.38733 1.88977,-1.95335 5.2984,-2.16311 7.38733,-0.42442 0.3766,0.3247 0.70374,0.61272 1.01893,0.84911 0,0 0.0788,-0.0842 0.0842,-0.0842 0.70482,0.34045 2.37015,0.2804 3.90587,-0.84911 0.54968,-0.40512 0.74939,-0.81432 1.01892,-1.18874 -0.84855,-0.65972 -1.69902,-1.26428 -2.5473,-2.03785 -2.71414,-2.50465 -1.67647,-7.79245 1.78325,-9.08526 1.21836,-0.45757 2.60246,-0.45757 3.82083,0 0.39697,0.14672 0.73172,0.33013 1.10396,0.50946 1.10099,-4.18438 1.6849,-8.2397 7.81175,-8.66085 -0.56353,-3.3524 2.74675,-6.75506 6.11354,-6.28336 1.35123,0.2391 1.41916,0.0462 1.69821,0 l 0,-0.0842 c -1.54089,-2.43645 -0.68445,-6.06627 1.78298,-7.55688 3.37168,-2.05035 6.90694,-3.66025 10.52887,-4.75498 2.87147,-0.86785 5.63153,-1.39008 8.49103,-1.69821 -2.50166,-1.27351 -4.15096,-4.11889 -4.07569,-6.623 0.0815,-2.68941 1.58218,-5.30628 4.33056,-6.53823 0.79883,-0.34235 1.68054,-0.48935 2.54731,-0.42441 1.39742,0.0924 2.76821,0.31383 4.16047,0.42441 -1.89493,-2.38319 -1.21809,-6.35944 1.35856,-7.98156 7.65279,-4.67863 17.00706,-4.62102 23.77488,-5.7739 3.38419,-0.57603 6.00567,-1.41862 7.04769,-2.12262 1.04311,-0.70292 1.08658,-0.40975 0.93388,-2.29272 -0.1739,-2.05116 0.93007,-4.15748 2.71713,-5.17939 -1.33303,-0.585 -2.75436,-0.96947 -4.0757,-1.61343 -1.8884,-0.89557 -3.19507,-2.9201 -3.14154,-5.00957 0.0543,-2.0892 1.46453,-4.12759 3.39641,-4.9248 0.48501,-0.21465 1.00181,-0.35866 1.52839,-0.42469 4.32322,-0.52331 8.61058,-0.68227 12.82131,-0.59423 z M 767.99983,12.705297 c -8.86952,0 -22.06417,5.166349 -28.36003,11.462753 -6.21843,6.21815 -7.13247,11.447265 -7.13247,20.293694 0,8.845614 4.77862,15.831897 12.6515,23.859655 6.81945,6.953134 18.6626,9.393931 22.841,9.425178 8.84534,0 16.7079,-2.442428 22.92578,-8.66085 6.29667,-6.296131 10.35905,-13.886703 10.35905,-22.755957 0,-8.828496 -1.03685,-16.694041 -7.30228,-22.925777 -6.26543,-6.232551 -17.13829,-10.698696 -25.98255,-10.698696 z M 615.16131,67.387522 c -0.0842,0.02989 -0.16846,0.05706 -0.25541,0.08423 0.18205,0.286385 0.32959,0.539893 0.50947,0.849103 -0.0788,-0.33149 -0.18205,-0.601573 -0.25541,-0.933878 z m 3.99065,16.982057 c -0.10053,0.326327 -0.0652,0.62494 -0.25541,1.018924 0.0435,0.04891 0.5706,0.488539 0.67928,0.594236 -0.17389,-0.528482 -0.26899,-1.074353 -0.42468,-1.61316 z"
         id="path4508"
         inkscape:connector-curvature="0"
         sodipodi:nodetypes="ccccccccccccccsccccccccccccccccccccccsccccccccccccccccccccccccccscccccccccccccccccccccccccccccccccccccccscccccccccccccccccccccccccccccccccccccccccccccccccccccccccccccccccccccccccccccccccccccccccccccccccccccccccccccccccccccccccccccccccccccccccccccccccccccccscscccscscccccccccc" />
    </clipPath>
  </defs>
  <sodipodi:namedview
     id="base"
     pagecolor="#ffffff"
     bordercolor="#666666"
     borderopacity="1.0"
     inkscape:pageopacity="0"
     inkscape:pageshadow="2"
     inkscape:zoom="0.14050047"
     inkscape:cx="267.5833"
     inkscape:cy="63.223889"
     inkscape:document-units="px"
     inkscape:current-layer="layer61"
     showgrid="false"
     inkscape:window-width="924"
     inkscape:window-height="749"
     inkscape:window-x="0"
     inkscape:window-y="0"
     inkscape:window-maximized="0"
     borderlayer="true"
     inkscape:showpageshadow="false"
     fit-margin-top="0"
     fit-margin-left="0"
     fit-margin-right="0"
     fit-margin-bottom="0" />
  <metadata
     id="metadata7">
    <rdf:RDF>
      <cc:Work
         rdf:about="">
        <dc:format>image/svg+xml</dc:format>
        <dc:type
           rdf:resource="http://purl.org/dc/dcmitype/StillImage" />
        <dc:title></dc:title>
      </cc:Work>
    </rdf:RDF>
  </metadata>
  <g
     inkscape:groupmode="layer"
     id="layer61"
     inkscape:label="android:ldpi:portrait:200"
     transform="translate(-441.94435,-688.06245)"
     style="display:inline">
    <rect
       style="fill:#000000;fill-opacity:1;stroke:none"
       id="rect6394"
       width="1536"
       height="2457.6001"
       x="-0.00015380696"
       y="-204.80011"
       inkscape:export-filename="/Users/pmn/code/personal/sprtid/identity/resources/splash/android/screen-ldpi-portrait.png"
       inkscape:export-xdpi="11.71875"
       inkscape:export-ydpi="11.71875" />
  </g>
  <g
     inkscape:groupmode="layer"
     id="layer62"
     inkscape:label="android:ldpi:landscape:320"
     transform="translate(-441.94435,-688.06245)"
     style="display:inline">
    <rect
       style="fill:#000000;fill-opacity:1;stroke:none"
       id="rect3098"
       width="2457.6001"
       height="1536"
       x="-460.8002"
       y="255.99995"
       inkscape:export-filename="/Users/pmn/code/personal/sprtid/identity/resources/splash/android/screen-ldpi-landscape.png"
       inkscape:export-xdpi="11.71875"
       inkscape:export-ydpi="11.71875" />
  </g>
  <g
     inkscape:groupmode="layer"
     id="layer41"
     inkscape:label="android:mdpi:portrait:320"
     transform="translate(-441.94435,-688.06245)"
     style="display:inline">
    <rect
       style="fill:#000000;fill-opacity:1;stroke:none"
       id="rect6406"
       width="1536"
       height="2304"
       x="-0.00015380696"
       y="-128.00005"
       inkscape:export-filename="/Users/pmn/code/personal/sprtid/identity/resources/splash/android/screen-mdpi-portrait.png"
       inkscape:export-xdpi="18.75"
       inkscape:export-ydpi="18.75" />
  </g>
  <g
     inkscape:groupmode="layer"
     id="layer42"
     inkscape:label="android:mdpi:landscape:480"
     transform="translate(-441.94435,-688.06245)"
     style="display:inline">
    <rect
       style="fill:#000000;fill-opacity:1;stroke:none"
       id="rect3103"
       width="2304"
       height="1536"
       x="-384.00015"
       y="255.99995"
       inkscape:export-filename="/Users/pmn/code/personal/sprtid/identity/resources/splash/android/screen-mdpi-landscape.png"
       inkscape:export-xdpi="18.75"
       inkscape:export-ydpi="18.75" />
  </g>
  <g
     inkscape:groupmode="layer"
     id="layer31"
     inkscape:label="android:hdpi:portrait:480"
     transform="translate(-441.94435,-688.06245)"
     style="display:inline">
    <rect
       y="-256.00006"
       x="-0.00015380696"
       height="2560"
       width="1536"
       id="rect6398"
       style="fill:#000000;fill-opacity:1;stroke:none;display:inline"
       inkscape:export-filename="/Users/pmn/code/personal/sprtid/identity/resources/splash/android/screen-hdpi-portrait.png"
       inkscape:export-xdpi="28.125"
       inkscape:export-ydpi="28.125" />
  </g>
  <g
     inkscape:groupmode="layer"
     id="layer32"
     inkscape:label="android:hdpi:landscape:800"
     transform="translate(-441.94435,-688.06245)"
     style="display:inline">
    <rect
       y="255.99995"
       x="-512.00018"
       height="1536"
       width="2560"
       id="rect3108"
       style="fill:#000000;fill-opacity:1;stroke:none;display:inline"
       inkscape:export-filename="/Users/pmn/code/personal/sprtid/identity/resources/splash/android/screen-hdpi-landscape.png"
       inkscape:export-xdpi="28.125"
       inkscape:export-ydpi="28.125" />
  </g>
  <g
     inkscape:groupmode="layer"
     id="layer2"
     inkscape:label="android:xhdpi:portrait:720"
     transform="translate(-441.94435,-688.06245)"
     style="display:inline">
    <rect
       style="fill:#000000;fill-opacity:1;stroke:none"
       id="rect6404"
       width="1536"
       height="2730.6667"
       x="-0.00015380696"
       y="-341.33344"
       inkscape:export-filename="/Users/pmn/code/personal/sprtid/identity/resources/splash/android/screen-xhdpi-portrait.png"
       inkscape:export-xdpi="42.1875"
       inkscape:export-ydpi="42.1875" />
  </g>
  <g
     inkscape:groupmode="layer"
     id="g3112"
     inkscape:label="android:xhdpi:landscape:1280"
     transform="translate(-441.94435,-688.06245)"
     style="display:inline">
    <rect
       style="fill:#000000;fill-opacity:1;stroke:none"
       id="rect3114"
       width="2730.6667"
       height="1536"
       x="-597.33356"
       y="255.99995"
       inkscape:export-filename="/Users/pmn/code/personal/sprtid/identity/resources/splash/android/screen-xhdpi-landscape.png"
       inkscape:export-xdpi="42.1875"
       inkscape:export-ydpi="42.1875" />
  </g>
  <g
     inkscape:groupmode="layer"
     id="layer21"
     inkscape:label="ios:2x~ipad:portrait:1536"
     style="display:inline"
     transform="translate(-441.94435,-688.06245)">
    <rect
       style="fill:#000000;fill-opacity:1;stroke:none"
       id="rect4037"
       width="1536"
       height="2048"
       x="0"
       y="0"
       inkscape:export-filename="/Users/pmn/code/personal/sprtid/identity/resources/splash/ios/screen-ipad-portrait-2x.png"
       inkscape:export-xdpi="90"
       inkscape:export-ydpi="90" />
  </g>
  <g
     inkscape:groupmode="layer"
     id="g3120"
     inkscape:label="ios:2x~ipad:landscape:2048"
     style="display:inline"
     transform="translate(-441.94435,-688.06245)">
    <rect
       y="-1792"
       x="256"
       height="2048"
       width="1536"
       id="rect4040"
       style="fill:#000000;fill-opacity:1;stroke:none"
       transform="matrix(0,1,-1,0,0,0)"
       inkscape:export-filename="/Users/pmn/code/personal/sprtid/identity/resources/splash/ios/screen-ipad-landscape-2x.png"
       inkscape:export-xdpi="90"
       inkscape:export-ydpi="90" />
  </g>
  <g
     inkscape:groupmode="layer"
     id="layer22"
     inkscape:label="ios:ipad:portrait:768"
     style="display:inline"
     transform="translate(-441.94435,-688.06245)">
    <rect
       style="fill:#000000;fill-opacity:1;stroke:none"
       id="rect6367"
       width="1536"
       height="2048"
       x="0"
       y="0"
       inkscape:export-filename="/Users/pmn/code/personal/sprtid/identity/resources/splash/ios/screen-ipad-portrait.png"
       inkscape:export-xdpi="45"
       inkscape:export-ydpi="45" />
  </g>
  <g
     inkscape:groupmode="layer"
     id="g3123"
     inkscape:label="ios:ipad:landscape:1024"
     style="display:inline"
     transform="translate(-441.94435,-688.06245)">
    <rect
       y="-1792"
       x="256"
       height="2048"
       width="1536"
       id="rect6372"
       style="fill:#000000;fill-opacity:1;stroke:none"
       transform="matrix(0,1,-1,0,0,0)"
       inkscape:export-filename="/Users/pmn/code/personal/sprtid/identity/resources/splash/ios/screen-ipad-landscape.png"
       inkscape:export-xdpi="45"
       inkscape:export-ydpi="45" />
  </g>
  <g
     inkscape:groupmode="layer"
     id="g31261"
     inkscape:label="ios:2x~iphone:portrait:640"
     transform="translate(-441.94435,-688.06245)"
     style="display:inline">
    <rect
       style="fill:#000000;fill-opacity:1;stroke:none"
       id="rect4044"
       width="1536"
       height="2304"
       x="0"
       y="-128"
       inkscape:export-filename="/Users/pmn/code/personal/sprtid/identity/resources/splash/ios/screen-iphone-portrait-2x.png"
       inkscape:export-xdpi="37.5"
       inkscape:export-ydpi="37.5" />
  </g>
  <g
     inkscape:groupmode="layer"
     id="g31262"
     inkscape:label="ios:2x~iphone:landscape:960"
     transform="translate(-441.94435,-688.06245)"
     style="display:inline">
    <rect
       style="fill:#000000;fill-opacity:1;stroke:none"
       id="rect3119"
       width="2304"
       height="1536"
       x="-384.00015"
       y="255.99995"
       inkscape:export-filename="/Users/pmn/code/personal/sprtid/identity/resources/splash/ios/screen-iphone-landscape-2x.png"
       inkscape:export-xdpi="37.5"
       inkscape:export-ydpi="37.5" />
  </g>
  <g
     inkscape:groupmode="layer"
     id="g3129"
     inkscape:label="ios:iphone:portrait:320"
     transform="translate(-441.94435,-688.06245)"
     style="display:inline">
    <rect
       style="fill:#000000;fill-opacity:1;stroke:none"
       id="rect6377"
       width="1536"
       height="2304"
       x="0"
       y="-128"
       inkscape:export-filename="/Users/pmn/code/personal/sprtid/identity/resources/splash/ios/screen-iphone-portrait.png"
       inkscape:export-xdpi="18.75"
       inkscape:export-ydpi="18.75" />
  </g>
  <g
     inkscape:groupmode="layer"
     id="g31292"
     inkscape:label="ios:iphone:landscape:480"
     transform="translate(-441.94435,-688.06245)"
     style="display:inline">
    <rect
       style="fill:#000000;fill-opacity:1;stroke:none"
       id="rect3124"
       width="2304"
       height="1536"
       x="-384.00015"
       y="255.99995"
       inkscape:export-filename="/Users/pmn/code/personal/sprtid/identity/resources/splash/ios/screen-iphone-landscape.png"
       inkscape:export-xdpi="18.75"
       inkscape:export-ydpi="18.75" />
  </g>
  <g
     inkscape:groupmode="layer"
     id="layer5"
     inkscape:label="ios:iphone5:portrait:640"
     transform="translate(-441.94435,-688.06245)"
     style="display:inline">
    <path
       style="fill:#000000;fill-opacity:1;stroke:none"
       d="m 0,-339.19995 c 512,0 1024,0 1536,0 0,908.79997 0,1817.59995 0,2726.39995 -512,0 -1024,0 -1536,0 C 0,1478.4 0,569.60002 0,-339.19995 z"
       id="rect4047"
       inkscape:connector-curvature="0"
       inkscape:export-filename="/Users/pmn/code/personal/sprtid/identity/resources/splash/ios/screen-iphone-portrait-568h-2x.png"
       inkscape:export-xdpi="37.5"
       inkscape:export-ydpi="37.5" />
  </g>
  <g
     inkscape:groupmode="layer"
     id="layer52"
     inkscape:label="ios:iphone5:landscape:1136"
     transform="translate(-441.94435,-688.06245)"
     style="display:inline">
    <path
       style="fill:#000000;fill-opacity:1;stroke:none"
       d="m 2131.2,256.00002 c 0,512 0,1023.99998 0,1535.99998 -908.8,0 -1817.59998,0 -2726.39997,0 0,-512 0,-1023.99998 0,-1535.99998 908.79999,0 1817.59997,0 2726.39997,0 z"
       id="path3112"
       inkscape:connector-curvature="0"
       inkscape:export-filename="/Users/pmn/code/personal/sprtid/identity/resources/splash/ios/screen-iphone-landscape-568h-2x.png"
       inkscape:export-xdpi="37.5"
       inkscape:export-ydpi="37.5" />
  </g>
  <g
     inkscape:label="detail"
     inkscape:groupmode="layer"
     id="layer1"
     transform="translate(-441.94435,307.57537)"
     sodipodi:insensitive="true">
    <text
       xml:space="preserve"
       style="font-size:86.94813538px;font-style:normal;font-variant:normal;font-weight:normal;font-stretch:normal;text-align:center;line-height:100%;letter-spacing:0px;word-spacing:0px;writing-mode:lr-tb;text-anchor:middle;fill:#000000;fill-opacity:1;stroke:none;font-family:Georgia;-inkscape-font-specification:Georgia"
       x="767.68176"
       y="327.58966"
       id="text7578"
       sodipodi:linespacing="100%"><tspan
         sodipodi:role="line"
         x="774.47461"
         y="327.58966"
         style="font-size:86.94813538px;font-style:normal;font-variant:normal;font-weight:normal;font-stretch:normal;text-align:center;line-height:100%;letter-spacing:13.58564568px;writing-mode:lr-tb;text-anchor:middle;font-family:Georgia;-inkscape-font-specification:Georgia"
         id="tspan7582"><tspan
           style="font-size:86.94813538px;font-style:normal;font-variant:normal;font-weight:normal;font-stretch:normal;text-align:center;line-height:100%;letter-spacing:13.58564568px;writing-mode:lr-tb;text-anchor:middle;fill:#b4d8e7;fill-opacity:1;font-family:Georgia;-inkscape-font-specification:Georgia"
           id="tspan4446-6">SPRT</tspan><tspan
           style="font-size:86.94813538px;font-style:normal;font-variant:normal;font-weight:normal;font-stretch:normal;text-align:center;line-height:100%;letter-spacing:13.58564568px;writing-mode:lr-tb;text-anchor:middle;fill:#fdaf5d;fill-opacity:1;font-family:Georgia;-inkscape-font-specification:Georgia"
           id="tspan4448-5">ID</tspan></tspan></text>
    <text
       sodipodi:linespacing="125%"
       id="text3060"
       y="69.268204"
       x="-1309.4326"
       style="font-size:66.63771057px;font-style:normal;font-variant:normal;font-weight:500;font-stretch:normal;text-align:start;line-height:125%;letter-spacing:10px;word-spacing:0px;writing-mode:lr-tb;text-anchor:start;fill:#b4d8e7;fill-opacity:1;stroke:none;font-family:Ionicons;-inkscape-font-specification:Ionicons Medium"
       xml:space="preserve"
       clip-path="url(#clipPath4506)"
       transform="translate(-2,0)"><tspan
         sodipodi:role="line"
         id="tspan4504"
         x="-1309.4326"
         y="69.268204"></tspan></text>
    <path
       style="fill:#fdaf5d;fill-opacity:1"
       d="m 804.65818,-271.32251 c 19.38237,9.44637 41.18706,11.96162 61.3699,19.21418 27.06505,2.43265 53.80785,16.79403 81.26091,8.51358 -23.22466,-5.12803 -47.01911,-7.5096 -70.1897,-12.89495 -22.83829,-9.20536 -47.00987,-17.91077 -72.44111,-14.83281 z m 4.3542,11.25951 c 1.11375,13.72124 -22.98121,8.3742 -34.29262,15.29011 13.00908,8.73366 29.34826,2.093 43.73002,5.10874 33.30848,14.17363 68.96808,22.21525 104.25544,30.41636 20.63034,1.53002 40.96398,16.85707 61.30577,10.91716 -11.73583,-12.76562 -43.44635,-7.68785 -62.37034,-15.75256 -20.15431,-4.01211 -40.56973,-8.62471 -59.65621,-16.74023 -7.77506,-5.18728 -50.47257,-12.78274 -30.35984,-17.6752 30.37479,12.33441 62.35947,21.59764 94.99899,26.77296 12.98597,-0.18477 43.65041,13.46011 47.39108,0.49778 -24.6392,-5.37666 -49.58679,-9.08228 -74.21404,-14.51409 -31.76106,-2.50628 -59.06169,-21.96283 -90.78825,-24.32103 z m 49.85688,-10.69434 c -3.08069,1.4792 15.35993,6.09126 19.37367,6.37574 24.48459,5.03375 -4.14661,-11.79288 -13.33132,-6.7662 -3.44233,-0.0869 -5.33128,0.0489 -6.04235,0.39046 z m -92.91985,34.34424 c -1.38791,0.62222 -1.63163,2.80299 0.0734,3.46407 27.67803,7.88646 56.82033,11.30679 84.94751,18.02625 36.80487,8.69481 74.02357,16.14871 110.03395,27.60847 8.6959,0.57359 33.80761,21.06373 32.76967,7.66475 -18.39117,-9.02929 -38.31289,-14.23368 -58.14766,-19.20765 -56.52308,-12.49527 -111.42865,-33.73887 -169.67711,-37.55589 z m -9.42789,15.01757 c -3.11139,0.9404 -6.20538,2.37559 -9.2453,4.22405 1.00995,0.95887 3.57166,10.18842 -7.18572,8.28262 2.52937,0.95915 5.11092,1.76559 7.75523,2.35141 79.19942,3.6347 154.88777,31.55918 223.90774,68.43579 6.94254,1.11592 32.61673,24.87749 26.99169,10.2039 -24.53404,-20.70778 -56.41004,-29.05806 -84.81654,-43.02438 -24.56557,-10.57017 5.18347,-5.99398 15.1988,-0.56027 28.18995,4.11944 48.00679,28.03507 76.00518,31.80998 -31.42171,-21.70688 -67.7269,-36.43616 -105.5458,-42.95863 -44.87312,-8.22149 -87.85403,-25.43097 -133.79688,-27.79053 13.14112,-14.05299 35.30176,-0.79041 51.41814,0.77438 35.52782,12.14231 73.41683,15.46319 109.7174,24.76175 27.49599,0.92219 46.91613,29.83244 74.81294,23.88628 -18.81617,-8.88284 -37.88851,-17.3179 -57.70888,-23.82515 -39.65188,-10.99894 -81.06283,-15.14392 -120.53348,-27.17319 -21.86338,-2.50737 -45.19564,-15.98053 -66.97452,-9.39801 z m -32.4629,26.7591 c 1.42812,1.3026 2.95569,2.45113 4.47701,3.52657 -0.62847,-1.38275 -2.0335,-2.62366 -4.47701,-3.52657 z m 14.96024,-2.0911 c 59.97383,22.56766 125.78732,31.56842 182.02972,63.78705 30.88126,14.3027 50.58643,44.947571 82.82892,56.74127 -1.9207,-6.596918 -27.85406,-23.603701 -40.23792,-32.65093 -40.36051,-34.54069 -90.9347,-54.22765 -142.01347,-67.73449 -6.20022,-1.71696 -40.77188,-8.65977 -22.47555,-12.77269 50.01637,16.98478 102.75965,27.14657 150.15617,50.9959 21.65226,4.55608 32.13983,29.4727 54.28357,31.30975 -31.83139,-25.05437 -68.66534,-43.24094 -106.64455,-57.35289 -49.08195,-16.29816 -99.41161,-36.74455 -152.3421,-32.2045 -1.86422,-0.22824 -5.45301,-0.48528 -5.58479,-0.11956 z m -10.4566,5.69836 c 2.3332,5.39704 -7.04606,12.74606 -13.28296,9.31758 3.74883,2.6003 8.22068,4.12732 12.71753,4.9123 50.77445,1.5148 99.94579,16.04519 146.83339,34.2073 48.23257,13.50658 82.93873,50.821185 119.53711,82.24261 -1.54877,-19.153859 -23.70614,-25.915435 -36.38943,-36.966271 -41.90737,-41.734829 -101.05248,-58.351979 -156.98567,-73.242119 -22.80106,-10.95764 -51.66078,-5.83395 -72.42997,-20.4714 z m -15.21321,7.80985 c 0.47604,0.52658 1.04039,0.92111 1.58164,1.26537 -0.54559,-0.39317 -1.06973,-0.82384 -1.58164,-1.26537 z m 1.17516,16.5158 c 11.89451,7.61394 26.59309,4.22269 39.86572,3.97326 23.93655,1.74276 46.10289,12.97673 68.56295,20.67871 42.94994,19.16472 88.72568,33.4071 127.82517,59.999916 12.36892,3.06628 27.67097,32.483551 36.55245,22.60108 -33.58154,-30.696767 -75.56825,-50.084026 -117.06832,-68.033386 -6.46215,-4.34115 -45.82167,-15.45476 -26.62868,-17.21138 30.45766,5.74184 55.27211,27.81743 85.96372,33.52149 -31.4698,-21.74708 -68.94471,-32.69983 -105.89767,-41.58973 -36.15249,-5.15603 -72.10717,-24.68757 -109.17534,-13.93996 z m -16.68725,6.33036 c 7.94,4.46968 17.0364,6.38906 26.03037,7.57047 50.83396,0.44996 98.07723,20.97814 143.30112,41.63783 9.05294,2.82554 35.32649,17.998265 35.87372,12.987336 -38.5941,-17.398866 -75.78889,-39.215236 -116.91481,-50.821726 -29.52025,-2.3764 -58.64923,-9.42165 -88.2904,-11.37391 z m -10.0118,11.63312 c 1.25314,1.23684 1.82319,3.31517 3.75154,3.76676 25.29756,4.24524 51.77136,4.52483 77.31346,8.74725 53.10249,13.24655 103.17429,36.670921 151.09983,62.49017 26.97729,10.311233 41.90275,36.193247 64.04083,52.944349 -12.67051,-20.749901 -31.50647,-37.16435 -52.12513,-49.91312 -47.16936,-24.377268 -94.01322,-50.810319 -145.21154,-66.318059 -32.57376,-5.93068 -65.60644,-11.11143 -98.86899,-11.71735 z m -8.10629,11.98635 c 7.24903,6.41948 17.48853,6.80586 26.73031,6.71266 62.04374,-5.83259 120.5313,20.37385 174.00604,47.928804 10.5699,2.904611 35.53434,22.553259 38.20446,15.70392 -29.99085,-14.711625 -59.29781,-30.795399 -89.94295,-44.189214 -45.69749,-24.01019 -98.50028,-24.15066 -148.99786,-26.15617 z m -0.9692,14.63174 c -2.91412,1.71206 19.9008,1.99002 21.07406,2.05605 32.94247,-0.50104 66.96555,-1.17815 97.52429,12.78871 44.587,20.436344 92.70953,35.772908 130.89797,67.389967 18.54576,13.881269 30.5389,33.9222709 45.59859,50.732606 7.83565,-9.7854693 -15.14419,-23.059189 -20.66241,-33.229403 -32.60691,-40.29557 -82.97325,-57.927836 -129.05005,-78.28783 -42.73881,-24.86635 -94.08902,-27.0031 -142.42702,-22.24975 -1.6042,0.30622 -2.53889,0.5551 -2.95543,0.79965 z m -4.09824,8.4231 -0.80645,0.53527 -1.04854,0.61543 c 29.65937,0.95426 59.04648,5.67418 87.91299,12.12519 39.7141,6.155656 78.00878,18.782427 114.61068,34.947988 -21.90087,-9.754494 -43.25751,-20.640944 -65.16029,-30.391634 -41.17972,-22.838834 -89.84486,-20.506714 -135.50839,-17.832244 z m -4.4762,9.44256 c 14.73227,11.166047 57.97403,-9.41431 54.12277,17.856977 -28.68365,10.96579 -62.78389,-3.887125 -89.09521,15.099631 3.25131,-0.893121 6.47926,-1.647667 9.77867,-2.343253 35.64385,-4.422942 71.73086,-8.864634 107.71597,-8.295938 41.21994,-0.942573 76.05245,22.478809 109.54704,42.88608 33.21283,15.383299 51.39532,48.1247056 69.28055,77.95335 3.36734,4.105039 19.89889,33.622572 17.44207,18.911219 C 930.3697,34.44691 919.14442,6.0184028 899.4686,-16.584308 c -12.10563,-22.092706 -44.21965,-19.385087 -55.28407,-41.354163 -19.45003,-9.478977 -39.60324,-17.609443 -60.47487,-23.53523 -5.15032,-3.534442 -39.67634,-5.470668 -25.35462,-9.851495 26.97973,-0.901272 -7.71882,-5.388339 -17.43854,-7.284895 -23.39475,-2.186749 -47.39515,-9.597989 -70.74127,-5.646199 z m -20.22115,14.566262 c 20.21979,5.387252 41.18733,1.259389 61.65112,-0.467074 -19.9258,-5.092987 -41.35172,-1.422146 -61.65112,0.467074 z m 98.69184,-20.423572 c 8.07123,-2.30549 29.90799,3.44151 38.19496,7.03111 1.3985,11.318206 -24.3145,-4.79328 -33.58399,-3.37005 -2.54595,-0.12499 -5.12858,-0.32334 -7.65117,-0.68662 0.0625,-1.52186 1.17761,-2.44243 3.0402,-2.97444 z m -90.52252,44.015318 c -18.33464,6.608873 -34.2092,19.714946 -41.80276,37.990901 -9.81508,28.51056456 -23.41622,63.416165 -3.61867,90.641799 -6.62681,-21.629978 -5.07641,-45.070652 1.36862,-66.6413972 6.99688,-22.2924148 16.57231,-47.9516248 41.54246,-55.5253508 23.78113,-6.085282 48.37142,-10.059899 72.84487,-12.312671 2.97363,9.044237 -34.19697,9.112165 -47.09355,11.746965 -21.12079,2.852714 -42.08181,13.209595 -52.45174,32.572402 -16.01394,32.070819 -16.22316,70.16008 -6.27656,103.954646 4.70851,28.913788 30.31827,46.093648 51.34613,63.498218 -12.39799,-18.97371 -35.87507,-29.4996 -43.17953,-52.070245 8.52037,8.845343 16.6685,16.441625 29.31157,18.290625 17.02662,26.29665 44.86741,45.3478 76.04702,51.116 22.56521,3.64584 1.20423,6.95096 -9.49528,8.33153 11.90211,5.60516 13.22209,9.91562 -3.28393,4.1284 -19.38209,-7.85277 2.99808,2.10524 7.76882,8.87659 l -0.0815,0.0272 c -7.15421,2.75707 24.06425,10.81553 23.21161,7.16208 -23.46893,-9.50724 14.51274,-1.69495 9.70505,-5.80732 1.69929,-3.98386 34.38961,0.2391 48.27713,0.47278 14.66326,-0.55538 38.73974,5.04462 40.33959,-4.59114 33.17425,7.30473 31.08966,-33.58752 31.57983,-55.0887 -13.34735,11.75131 -0.9173,38.40444 -16.58861,50.92987 -33.65926,3.04698 -67.63967,6.3771 -101.34131,2.69675 -18.27351,-2.26745 -7.34196,-4.79329 4.08955,-4.12678 15.62132,-9.17058 39.42554,-1.84982 58.54435,-4.4474 -11.38613,3.58091 -1.3966,6.79853 4.39468,4.35882 5.76168,-7.56367 36.83911,4.26589 28.0992,-6.44177 10.8859,-8.57281 4.42946,-13.81524 -3.99391,-3.41815 -18.87699,8.59265 -0.55565,-8.35408 6.14587,-11.96324 -13.59135,-0.44045 -26.60531,18.95387 -42.75022,15.13902 1.07951,-7.29766 30.43538,-8.57689 36.74971,-22.1859 14.19374,-29.33222 16.17046,-66.095526 -0.5081,-94.731622 -21.41913,-30.479669 -54.43741,-58.474522 -93.77872,-59.555668 -27.15119,-1.991656 -59.07338,16.2671807 -57.12439,46.284122 7.31778,27.821773 -11.38721,0.864591 -6.01898,-11.155174 0.72439,-26.3428392 29.98814,-39.228553 53.13754,-39.955385 38.96472,-5.151133 72.15065,20.6091535 97.24143,46.781629 9.57897,10.719346 6.54883,5.337528 -0.28883,-3.303214 -27.49354,-36.076955 -77.33819,-59.895853 -123.04547,-46.645229 -24.82097,5.908669 -34.85669,34.455372 -28.41492,56.813541 7.82479,30.453856 35.82046,61.946471 70.26333,56.608399 26.30236,-2.960041 55.29005,-28.964326 45.57278,-56.859461 -14.82439,-23.314076 -48.2478,-36.10142909 -74.65069,-24.476735 -18.18656,14.499145 -10.26613,-11.09077821 4.2841,-7.3218483 26.95012,-8.3500097 56.58503,5.2951414 72.73945,26.8088273 14.32606,28.023927 -12.60612,60.290379 -40.6507,66.052595 -51.33581,10.339223 -98.35763,-46.034689 -82.51188,-94.4123596 5.95378,-18.8639414 23.46024,-31.0108674 42.494,-34.5526454 -25.97358,2.911132 -54.19314,16.43999 -65.94798,40.9764822 -16.38348,38.3055438 7.72806,80.4770198 39.96516,101.7920858 25.5277,21.29061 67.14298,31.0182 95.09001,8.13861 18.00262,-18.29823 -9.82486,-1.27487 -16.33646,5.49839 -28.61599,9.10591 -60.18414,-1.53871 -81.88096,-20.65154 -4.99762,-2.98287 -27.82748,-29.659643 -12.04476,-19.08838 14.36654,20.35809 37.05512,35.64765 62.51407,37.79744 9.56185,6.71294 55.83619,-14.49697 31.86514,-9.92486 -27.79705,15.79277 -62.89394,2.57177 -82.82326,-19.44486 -7.49303,-5.704613 -33.07562,-42.216036 -17.76106,-33.921728 11.85157,28.254883 38.0303,52.107478 69.89135,54.406168 24.82859,2.78696 45.222,-13.188405 61.03922,-30.138943 20.94119,-1.500128 0.12227,29.265923 -9.71074,35.504453 20.11164,-1.40883 28.03398,-43.369727 22.49674,-64.69267 -8.03319,17.284745 -19.32232,33.62719 -35.18411,44.743781 -24.4816,19.777169 -59.97655,9.270299 -80.82807,-10.177551 -16.47151,-18.45773 -41.6093,-41.723964 -30.87474,-68.934654 1.24662,34.238545 25.51031,64.63208 56.3644,78.383743 24.92749,13.990501 54.19423,-2.100884 70.82279,-21.660954 24.22321,-13.334312 9.75938,-49.490607 1.91503,-57.967506 18.06293,12.458852 24.83402,36.59647 25.25871,57.646069 0.77383,31.117112 -27.4748,55.336512 -56.96272,59.468182 -53.75704,6.2119 -109.17506,-33.02753 -120.95436,-85.172495 -10.38106,-37.201575 18.65581,-74.215396 53.68504,-85.305359 48.27605,-17.201873 98.9285,7.096598 135.2269,37.7819537 C 846.17564,-12.202666 827.44946,-18.42299 815.4729,-27.68052 c -1.12734,-13.247092 21.85876,14.246995 31.68553,12.763986 C 805.26274,-55.71749 739.78672,-66.29473 684.26925,-49.800398 654.6846,-46.151021 632.15281,-20.118206 627.33643,8.1374918 617.1298,34.492015 630.82169,60.921802 640.6077,84.958071 c -9.1157,-5.62962 -23.41812,-34.90234 -21.23898,-53.61059 4.14145,-26.8123591 5.07641,-59.945033 30.30767,-76.759987 30.97636,-11.950749 64.75598,-17.787958 97.98647,-16.880708 31.01522,-0.220088 59.76625,12.162685 85.51784,28.123374 20.529,10.022674 38.4001,23.689291 56.09704,37.5963732 C 886.59348,-5.8233897 869.77255,-15.749878 859.90176,-22.892667 839.31,-34.665444 819.42578,-48.158708 797.29965,-56.90406 c -6.37004,-3.863214 -38.78919,-7.798161 -25.37581,-12.617261 33.25087,2.877983 59.20896,26.097211 88.98788,38.333802 3.76323,-0.435556 -22.61793,-15.447695 -31.32008,-20.845544 -42.7744,-27.471806 -96.71295,-29.953632 -145.52156,-18.899535 -8.79887,0.176613 -17.61406,1.830801 -25.94776,4.83486 z m 278.02726,-72.826398 c 2.68479,9.28552 31.16737,23.02713 43.48358,34.34913 6.78249,3.17551 12.99874,14.081795 21.67696,9.280085 -21.18951,-15.293635 -42.32443,-30.768495 -65.16054,-43.629215 z m -149.44673,50.556264 c 27.20173,11.00709 55.12811,20.352384 82.26191,31.52685 -25.13535,-14.260309 -52.17894,-25.754309 -80.59658,-31.89964 l -0.48365,0.16031 -1.18168,0.211936 z m -38.29358,15.362377 c 1.07,-0.586357 2.1055,0.244541 2.13946,4.300672 -7.07948,5.040274 -4.49331,-3.010308 -2.13946,-4.300672 z m -69.08954,27.706023 c 4.5675,-1.530016 9.2396,-2.708163 13.86225,-3.516509 15.50612,-5.399479 10.20935,3.790939 -1.08766,6.710494 -22.44132,6.659684 -46.27271,18.190908 -51.74827,43.3414712 -11.45705,32.2460738 -2.45303,68.4659498 20.05812,93.5355428 4.08248,5.520937 25.44211,27.232427 22.19351,19.484537 -26.53521,-24.719358 -47.86278,-59.843416 -41.9071,-97.392239 3.92109,-34.067095 37.90884,-53.429357 68.21788,-61.674214 27.33187,-6.682236 60.3238,-13.512827 84.4913,4.492501 4.31671,5.547835 -24.9033,-7.226477 -34.9238,-4.715306 -31.39072,0.950452 -67.7239,3.556722 -90.57089,27.931273 -20.1111,17.88577494 -26.68628,46.913138 -19.58479,72.13652 3.48499,12.662094 14.40894,41.359597 25.43097,38.716374 -17.6627,-22.18699 -28.77277,-52.374839 -20.32576,-80.566957 8.44511,-17.3418049 20.73876,-46.387101 44.33513,-42.228535 -20.8988,10.645169 -36.9679,30.7481212 -41.83401,53.56467 -6.72979,40.340402 23.95231,75.631023 55.81853,96.185013 30.42723,22.90975 76.60728,27.64435 107.77411,2.95488 C 860.78809,93.049138 847.56301,20.262409 799.1636,4.9100858 772.43439,-6.6917842 733.66802,-8.2560355 715.89663,19.242671 707.57896,18.649793 730.03712,-4.908804 740.56844,-5.3837582 793.59566,-23.06765 857.56694,24.63264 850.56571,80.733206 c -3.49668,42.801304 -49.87454,69.786204 -90.26901,64.771744 -27.27291,-3.55048 4.01021,3.86484 13.46826,5.55816 -17.84121,8.18372 -40.13607,-7.59139 -57.05346,-15.90282 -11.62551,-7.85984 -14.47877,-3.3657 -2.47639,3.05623 21.18736,20.58986 53.06363,17.15623 80.35339,19.27885 -3.30783,10.25879 -38.03818,1.40122 -52.27621,-1.47405 -24.42536,-2.8288 -37.83602,-17.76595 -56.10926,-31.42088 -40.6238,-27.395453 -67.5693,-80.649283 -49.92616,-128.9046828 5.22069,-20.8854852 23.25075,-34.3654352 43.04394,-40.9957732 z m 9.86644,34.120621 c 3.54966,13.5228805 -22.76356,46.690333 -9.80421,68.719187 0.81351,3.883592 2.0873,7.982382 0.72792,11.923306 -15.35776,-24.386506 -15.29744,-61.5747669 9.07629,-80.642493 z m 70.60705,-21.231919 c -0.6195,0.484736 0.24726,1.325959 3.29724,2.66496 44.42723,3.355111 82.84826,33.253586 106.19138,69.220225 -0.6426,16.258758 -1.51887,34.819739 7.14551,52.1053 10.14685,24.184079 1.92536,-10.798415 -1.19717,-19.013112 11.14839,-9.850136 12.02004,20.819459 12.77758,28.595341 8.65704,25.76192 -10.2319,52.01645 -1.87455,77.81043 l 0.32143,0.43039 c 6.18881,2.65654 -0.34317,-25.97304 3.99011,-34.95206 13.12455,-68.122507 -24.9927,-143.088645 -90.47144,-168.967127 -6.47627,-4.941099 -37.49584,-9.994145 -40.18009,-7.894347 z m 168.89376,-53.954035 c -0.37958,0.222805 -0.64124,0.70265 -0.67412,1.475402 21.49168,16.772295 4.34497,-3.639595 0.67412,-1.475402 z m -40.2828,29.884889 c 34.16301,19.023165 60.48412,50.4709469 75.17101,86.288959 0.49615,1.437362 7.84381,13.223996 8.04407,5.654889 -11.99803,-40.5365783 -43.43087,-75.96903 -83.21508,-91.943848 z m -18.06157,8.932019 c 12.77486,15.218913 33.01176,22.563041 44.87067,38.8092999 3.81132,2.73153 4.87698,7.6867585 8.92088,10.1943971 2.4264,-12.487111 -35.58868,-38.959014 -53.79155,-49.003697 z m 84.89018,-20.505087 c 1.94465,5.354646 7.0284,-2.32695 0,0 z m -60.2537,26.837628 c -1.14282,0.157594 -0.51163,1.979973 3.20975,6.182285 29.77838,14.970023 45.73961,46.162666 56.79887,75.914416 1.40964,1.306667 4.16617,16.653828 7.6297,11.426887 C 956.33485,23.851465 941.5447,-2.6894529 920.7209,-23.17389 918.08854,-27.864742 898.40865,-41.69031 894.98017,-41.2159 z M 724.88463,22.885797 c 3.52194,-1.405027 7.89298,-1.59115 13.23731,-5.43e-4 10.24439,-6.266243 31.23503,-17.6463956 48.23638,-5.864108 28.72413,12.037697 16.48862,61.809798 -14.05952,61.809798 -14.97681,-1.068647 -29.6379,-7.165069 -42.58393,-14.343453 -18.38274,-6.568117 -20.09263,-35.513694 -4.83024,-41.601694 z m 246.29961,-77.884606 c -2.85408,1.118099 9.276,16.347064 15.07626,20.410259 14.0546,13.666345 -2.50248,-13.204976 -6.43933,-15.935419 -5.07804,-3.693665 -7.68567,-4.847359 -8.63693,-4.47484 z m -26.06542,9.882742 c -7.03438,2.346241 16.72855,19.565232 20.48742,26.757745 4.34496,3.684971 7.26071,8.6939984 11.19811,12.7498572 1.63951,-18.0569542 -19.75326,-28.2649362 -30.93343,-39.6670972 -0.29264,0.04347 -0.52522,0.08423 -0.7521,0.16031 z M 606.78542,67.08724 c -1.49469,1.133315 -0.25541,8.158452 4.70118,12.307237 3.12307,10.228904 4.22649,-2.160118 0.65673,-6.120605 -2.62828,-5.438335 -4.46099,-6.866458 -5.35791,-6.186632 z M 727.66778,27.509536 c -11.18615,4.24796 -14.58609,26.072213 10.98889,36.700536 -9.72026,-10.870147 -10.78429,-26.371369 -4.06048,-37.116257 -2.46688,-0.602659 -4.85687,-0.370888 -6.92841,0.415721 z m 150.35479,-48.083948 c 2.35249,11.1540867 9.50588,-2.172074 0,0 z m -10.57833,12.8941362 c -2.89374,0.8289961 8.07966,14.1323324 13.41773,17.2920819 13.64868,12.2939229 -0.76243,-11.3345044 -5.15602,-13.1405802 -4.75335,-3.3162562 -7.29713,-4.4278337 -8.26171,-4.1515017 z m -6.18581,5.089183 c -0.58419,0.3102961 -1.20369,0.9156725 -1.80282,1.84927812 l 2.65029,3.95233618 c 9.08282,14.1296155 4.79899,-8.7999664 -0.84747,-5.8016143 z M 614.58249,88.744934 c -8.29186,3.248056 17.07499,17.202686 19.52285,25.735556 12.37761,1.50584 -16.04872,-21.796263 -19.52285,-25.735556 z M 900.50709,1.1395256 c -1.75744,0.3431734 -1.38357,3.9743449 4.81258,10.2128734 10.09413,24.954658 32.43627,43.20806 39.89588,69.436237 1.44578,9.56674 7.74273,5.530445 5.74917,-1.545775 C 938.39854,55.478034 922.89107,33.343213 908.40904,10.687246 906.12258,3.7471545 902.26453,0.79635216 900.50709,1.1395256 z M 810.61766,37.342283 c 9.09314,26.386314 -19.15467,52.636227 -45.18396,50.46986 -15.11865,-1.193091 -30.0183,-7.417763 -41.39655,-17.240728 12.15427,-1.617507 46.89901,23.566748 67.19814,4.941099 22.57228,-3.261098 5.42176,-30.811701 19.38237,-38.170231 z M 618.87529,103.87065 c 2.70897,16.21012 27.06396,27.64326 39.39022,40.35562 9.53087,21.53814 33.61523,29.34717 52.89517,40.89279 13.42262,5.5655 24.28679,16.15687 38.43705,20.18854 21.42565,5.65842 3.54531,-9.23878 -6.82787,-9.54582 -20.01166,-9.56891 -43.72079,-15.75255 -58.14602,-33.51932 -13.11287,-12.15209 -0.0707,-5.92116 9.2991,-4.33137 -5.72391,-9.68304 -26.97213,-11.08127 -37.49801,-19.78369 -15.88027,-7.60117 -25.68041,-22.43833 -37.54964,-34.25675 z M 877.91687,18.81581 c 24.53595,35.78595 38.00666,78.783161 39.09189,122.11648 11.42063,-6.46867 0.90806,-33.50845 -0.98197,-45.917309 -11.07964,-25.89397 -13.5093,-58.451427 -38.10992,-76.199171 z m -3.39804,7.296578 c -0.84937,0.190199 -1.39117,1.469424 -1.51181,4.078411 20.87217,29.29337 35.62075,64.191906 35.37594,100.628061 1.40367,6.87597 -0.73988,14.86949 3.12605,21.05748 4.39415,-31.16982 -3.64693,-62.659441 -16.57285,-90.843407 -2.47803,-6.634143 -15.83054,-35.952782 -20.41733,-34.920545 z m 27.64109,-5.663855 c -0.22281,0.222804 0.15759,1.729996 1.68108,5.346766 12.30914,17.09971 -0.71107,-6.308902 -1.68108,-5.346766 z m 34.64638,-4.226495 c -1.81776,0.487996 4.36208,18.52267 8.41251,22.705962 3.28338,5.52963 5.28481,11.695883 8.18154,17.415711 8.49538,0.404037 -8.02612,-25.423091 -11.74723,-33.587249 -2.76359,-4.918819 -4.2409,-6.697452 -4.84682,-6.534424 z m -37.30537,18.076245 c 13.78916,23.742004 20.93766,50.681525 24.57372,77.729457 6.94661,-8.57716 3.75263,-20.127948 0.46191,-29.400966 C 917.34079,66.74135 914.10958,43.150419 899.50093,34.298283 z M 664.38557,118.40783 c -3.1016,0.74857 -3.37277,6.42465 4.70743,9.085 7.39167,11.03643 13.42234,4.33708 2.82608,-3.35077 -2.78044,-4.84654 -5.67255,-6.18364 -7.53351,-5.73423 z M 855.36171,59.020355 c 8.78312,-2.992646 9.49039,25.028021 9.16678,34.97842 1.94139,25.681485 -10.31558,59.281505 -39.83827,62.563525 -6.04752,-11.5516 24.92748,-9.62896 25.55324,-22.23508 16.85516,-22.0707 7.50906,-50.531809 5.11825,-75.306865 z M 654.39876,130.92728 c -0.3391,0.24454 0.54778,1.57322 3.72274,4.76014 8.96897,3.3994 -2.70599,-5.49024 -3.72274,-4.76014 z m 44.16205,-9.52408 c 2.64023,2.13783 5.45898,4.05124 8.36604,5.81655 19.81548,13.67803 3.47847,-9.58114 -8.36604,-5.81655 z M 921.05918,49.163426 c -2.11094,11.021763 13.36936,39.913541 12.04558,58.801124 l 1.09391,3.57329 1.44389,3.01031 c 10.2376,-4.71585 -10.08735,-34.74067 0.87084,-32.488169 7.24576,-0.211937 -10.07811,-24.963353 -15.45395,-32.896555 z m -65.11953,29.700939 c 3.01873,26.876485 -14.64995,55.291945 -41.07512,63.420245 -1.82754,2.32776 -29.87429,8.22991 -8.02477,-1.81505 29.11785,-5.31715 44.41556,-35.26045 49.09989,-61.605195 z M 813.64291,95.37337 c -2.39922,0.905891 -5.76982,3.701002 -7.77778,8.92604 12.9838,-6.674898 11.77685,-10.435677 7.77778,-8.92604 z m 80.12081,-11.949119 c 6.78603,27.966049 3.72735,57.192849 -1.75527,85.195039 8.48016,12.29338 9.45887,-18.28736 9.8985,-21.97125 -2.14952,-20.8863 7.20692,-45.65293 -8.14323,-63.223789 z M 702.28653,151.56415 c 0.98877,4.59303 10.01398,0.84149 0,0 z M 854.3398,113.47217 c 0.58119,-0.12771 0.9855,0.71977 0.55674,3.57221 -3.97407,1.66478 -1.83569,-3.28909 -0.55674,-3.57221 z m 19.34487,-6.13718 c -0.82003,0.3698 -1.30123,2.79565 -0.876,8.42962 -0.10868,3.77491 -0.6964,7.75333 0.89013,11.33287 7.88131,-3.60834 2.44569,-20.87162 -0.0272,-19.76249 z m -168.04846,60.82973 c -0.88307,0.33203 -1.92672,1.00724 -3.06519,2.08838 8.50488,22.32801 11.60295,-5.29813 3.06519,-2.08838 z m 132.87332,-33.88804 c 12.14095,-2.17017 -15.75011,22.10303 -25.32717,16.70437 -4.60282,0.39561 -9.00756,2.01801 -13.61825,2.36254 -4.34062,-4.32947 30.08106,-9.52435 38.94542,-19.06691 z m -110.70127,50.8758 c 21.80442,12.32137 47.16827,15.50666 71.54527,19.69104 6.83874,3.34342 47.95217,5.25547 27.01968,-3.75888 -33.90516,4.25204 -65.9143,-9.94089 -98.56495,-15.93216 z m 60.25723,-15.2113 c -0.59804,0.2228 -1.12571,0.49153 -1.69332,0.82899 21.97261,4.46099 10.66691,-4.1803 1.69332,-0.82899 z m -24.22701,17.05569 c 1.94736,5.35356 7.02731,-2.32695 0,0 z m 19.55653,-4.41805 c -0.68009,0.40295 7.91772,2.606 6.77761,7.77343 l -1.82509,-0.37958 c 12.35831,6.47763 43.52351,-7.89815 64.44758,-2.55573 -19.4185,-5.80977 -40.77052,-2.97091 -60.94303,-4.4186 -5.94155,-0.42795 -8.14813,-0.60293 -8.45707,-0.41952 z M 904.2032,153.04308 c -0.57413,0.34806 -0.75645,1.98323 -0.0924,5.66549 l 0.16031,0.21465 0.69612,1.02191 c 12.30615,14.30378 1.72375,-8.41006 -0.76487,-6.90232 z m -79.63634,38.26424 c -2.20713,0.80699 -3.96647,2.12371 -4.86828,4.20585 4.00287,5.05793 12.28957,0.30893 17.72057,0.5725 24.1993,2.34787 -0.93279,-9.13662 -12.85229,-4.77835 z m -48.25676,16.06747 c -0.61353,0.24726 -1.09718,0.58147 -1.55909,0.9635 3.70372,2.96982 8.68069,2.82799 13.17753,3.06057 21.8604,2.75137 -2.41498,-7.73648 -11.61844,-4.02407 z m 90.56817,-26.58901 c 1.0806,8.8929 22.3905,1.68788 5.20737,0.86976 l -2.57665,-0.48854 -2.63072,-0.38122 z m -13.57342,6.82 c 1.18222,0.36382 2.34814,0.72927 3.51515,1.16157 -1.13169,-0.47468 -2.30657,-0.8309 -3.51515,-1.16157 z"
       id="path7576"
       inkscape:connector-curvature="0" />
    <text
       sodipodi:linespacing="100%"
       id="text3989"
       y="327.58966"
       x="767.68176"
       style="font-size:86.94813538px;font-style:normal;font-variant:normal;font-weight:normal;font-stretch:normal;text-align:center;line-height:100%;letter-spacing:0px;word-spacing:0px;writing-mode:lr-tb;text-anchor:middle;fill:#000000;fill-opacity:1;stroke:none;font-family:Georgia;-inkscape-font-specification:Georgia"
       xml:space="preserve"><tspan
         id="tspan3991"
         style="font-size:86.94813538px;font-style:normal;font-variant:normal;font-weight:normal;font-stretch:normal;text-align:center;line-height:100%;letter-spacing:13.58564568px;writing-mode:lr-tb;text-anchor:middle;font-family:Georgia;-inkscape-font-specification:Georgia"
         y="327.58966"
         x="774.47461"
         sodipodi:role="line"><tspan
           id="tspan3993"
           style="font-size:86.94813538px;font-style:normal;font-variant:normal;font-weight:normal;font-stretch:normal;text-align:center;line-height:100%;letter-spacing:13.58564568px;writing-mode:lr-tb;text-anchor:middle;fill:#b4d8e7;fill-opacity:1;font-family:Georgia;-inkscape-font-specification:Georgia">SPRT</tspan><tspan
           id="tspan3995"
           style="font-size:86.94813538px;font-style:normal;font-variant:normal;font-weight:normal;font-stretch:normal;text-align:center;line-height:100%;letter-spacing:13.58564568px;writing-mode:lr-tb;text-anchor:middle;fill:#fdaf5d;fill-opacity:1;font-family:Georgia;-inkscape-font-specification:Georgia">ID</tspan></tspan></text>
  </g>
</svg>
